<?xml version="1.0" encoding="UTF-8"?>
<!DOCTYPE svg PUBLIC "-//W3C//DTD SVG 1.1//EN" "http://www.w3.org/Graphics/SVG/1.1/DTD/svg11.dtd">
<svg xmlns="http://www.w3.org/2000/svg" version="1.1" width="724px" height="345px" style="shape-rendering:geometricPrecision; text-rendering:geometricPrecision; image-rendering:optimizeQuality; fill-rule:evenodd; clip-rule:evenodd" xmlns:xlink="http://www.w3.org/1999/xlink">
<g><path style="opacity:0.059" fill="#f9cfca" d="M 364.5,-0.5 C 365.167,-0.5 365.833,-0.5 366.5,-0.5C 391.965,25.4653 417.632,51.2987 443.5,77C 435.632,85.0358 427.632,92.8691 419.5,100.5C 422.098,96.562 425.098,92.8953 428.5,89.5C 432.964,85.5368 437.298,81.3702 441.5,77C 433.632,68.9642 425.632,61.1309 417.5,53.5C 405.833,41.1667 393.833,29.1667 381.5,17.5C 375.833,11.5 370.167,5.5 364.5,-0.5 Z"/></g>
<g><path style="opacity:0.153" fill="#f8e7e3" d="M 357.5,-0.5 C 358.167,-0.5 358.833,-0.5 359.5,-0.5C 359.167,0.5 358.5,1.16667 357.5,1.5C 357.5,0.833333 357.5,0.166667 357.5,-0.5 Z"/></g>
<g><path style="opacity:0.239" fill="#f7e2dd" d="M 357.5,1.5 C 356.167,3.16667 354.833,4.83333 353.5,6.5C 352.167,7.5 350.833,8.5 349.5,9.5C 351.167,5.83333 353.833,3.16667 357.5,1.5 Z"/></g>
<g><path style="opacity:1" fill="#cd3944" d="M 353.5,6.5 C 355.479,27.1211 358.146,47.6211 361.5,68C 358.444,90.9958 355.111,114.162 351.5,137.5C 351.624,138.107 351.957,138.44 352.5,138.5C 351.306,139.272 350.306,140.272 349.5,141.5C 345.698,140.221 342.531,137.888 340,134.5C 338.576,131.352 337.076,128.352 335.5,125.5C 335.61,122.941 334.944,120.608 333.5,118.5C 331.833,119.833 330.167,121.167 328.5,122.5C 324.146,118.478 319.813,114.478 315.5,110.5C 311.833,106.5 308.167,102.5 304.5,98.5C 304.33,97.1779 304.663,96.0113 305.5,95C 324.201,86.6476 342.534,77.8142 360.5,68.5C 345.862,61.2342 331.195,54.0675 316.5,47C 315.829,46.0138 315.829,44.8471 316.5,43.5C 327.5,32.1667 338.5,20.8333 349.5,9.5C 350.833,8.5 352.167,7.5 353.5,6.5 Z"/></g>
<g><path style="opacity:0.243" fill="#f6e2dc" d="M 349.5,9.5 C 338.5,20.8333 327.5,32.1667 316.5,43.5C 305.035,54.4646 293.702,65.6313 282.5,77C 289.702,84.3692 297.035,91.5359 304.5,98.5C 308.167,102.5 311.833,106.5 315.5,110.5C 303.92,100.423 292.753,89.7568 282,78.5C 281.333,77.5 281.333,76.5 282,75.5C 304.084,52.9137 326.584,30.9137 349.5,9.5 Z"/></g>
<g><path style="opacity:1" fill="#ea3856" d="M 417.5,53.5 C 425.632,61.1309 433.632,68.9642 441.5,77C 437.298,81.3702 432.964,85.5368 428.5,89.5C 426.614,88.6394 424.78,87.6394 423,86.5C 403.095,81.6826 383.262,75.6826 363.5,68.5C 379.386,63.0276 395.386,57.8609 411.5,53C 413.545,52.5099 415.545,52.6765 417.5,53.5 Z"/></g>
<g><path style="opacity:1" fill="#d7384a" d="M 359.5,-0.5 C 361.167,-0.5 362.833,-0.5 364.5,-0.5C 370.167,5.5 375.833,11.5 381.5,17.5C 379.058,17.1192 378.391,17.7859 379.5,19.5C 378.846,21.1151 378.346,22.7818 378,24.5C 372.718,38.8124 367.552,53.479 362.5,68.5C 363.468,73.2673 365.135,77.7673 367.5,82C 367.043,82.414 366.709,82.914 366.5,83.5C 371.309,94.4662 375.309,105.3 378.5,116C 379.206,118.714 380.539,120.881 382.5,122.5C 382.167,123.167 381.833,123.833 381.5,124.5C 378.669,125.079 376.336,126.412 374.5,128.5C 370.345,129.742 366.678,131.742 363.5,134.5C 359.833,135.833 356.167,137.167 352.5,138.5C 351.957,138.44 351.624,138.107 351.5,137.5C 355.111,114.162 358.444,90.9958 361.5,68C 358.146,47.6211 355.479,27.1211 353.5,6.5C 354.833,4.83333 356.167,3.16667 357.5,1.5C 358.5,1.16667 359.167,0.5 359.5,-0.5 Z"/></g>
<g><path style="opacity:1" fill="#e03950" d="M 381.5,17.5 C 393.833,29.1667 405.833,41.1667 417.5,53.5C 415.545,52.6765 413.545,52.5099 411.5,53C 395.386,57.8609 379.386,63.0276 363.5,68.5C 383.262,75.6826 403.095,81.6826 423,86.5C 424.78,87.6394 426.614,88.6394 428.5,89.5C 425.098,92.8953 422.098,96.562 419.5,100.5C 414.167,103.833 409.833,108.167 406.5,113.5C 406.5,114.167 406.167,114.5 405.5,114.5C 400.928,117.563 396.761,121.23 393,125.5C 391.732,123.283 390.232,121.283 388.5,119.5C 386.757,121.038 384.757,122.038 382.5,122.5C 380.539,120.881 379.206,118.714 378.5,116C 375.309,105.3 371.309,94.4662 366.5,83.5C 366.709,82.914 367.043,82.414 367.5,82C 365.135,77.7673 363.468,73.2673 362.5,68.5C 367.552,53.479 372.718,38.8124 378,24.5C 378.346,22.7818 378.846,21.1151 379.5,19.5C 378.391,17.7859 379.058,17.1192 381.5,17.5 Z"/></g>
<g><path style="opacity:1" fill="#c43940" d="M 316.5,43.5 C 315.829,44.8471 315.829,46.0138 316.5,47C 331.195,54.0675 345.862,61.2342 360.5,68.5C 342.534,77.8142 324.201,86.6476 305.5,95C 304.663,96.0113 304.33,97.1779 304.5,98.5C 297.035,91.5359 289.702,84.3692 282.5,77C 293.702,65.6313 305.035,54.4646 316.5,43.5 Z"/></g>
<g><path style="opacity:1" fill="#f7e63d" d="M 452.5,88.5 C 452.5,89.1667 452.5,89.8333 452.5,90.5C 455.507,110.705 458.84,130.871 462.5,151C 462.316,152.376 461.649,153.209 460.5,153.5C 455.473,149.14 450.806,144.473 446.5,139.5C 444.689,136.556 442.856,133.556 441,130.5C 439.693,128.808 438.193,127.475 436.5,126.5C 436.804,125.85 437.137,125.183 437.5,124.5C 434.935,119.17 431.935,114.17 428.5,109.5C 435.297,102.202 442.297,95.0351 449.5,88C 450.577,87.5304 451.577,87.6971 452.5,88.5 Z"/></g>
<g><path style="opacity:1" fill="#f58434" d="M 281.5,94.5 C 274.061,119.415 266.561,144.415 259,169.5C 257.365,149.405 255.865,129.405 254.5,109.5C 260.964,102.535 267.631,95.7018 274.5,89C 277.464,89.7719 279.798,91.6052 281.5,94.5 Z"/></g>
<g><path style="opacity:0.004" fill="#fdf8da" d="M 452.5,88.5 C 455.833,89.8333 458.167,92.1667 459.5,95.5C 457.378,93.6665 455.044,91.9999 452.5,90.5C 452.5,89.8333 452.5,89.1667 452.5,88.5 Z"/></g>
<g><path style="opacity:1" fill="#f5e442" d="M 452.5,90.5 C 455.044,91.9999 457.378,93.6665 459.5,95.5C 463.772,101.11 468.438,106.443 473.5,111.5C 473.213,124.967 471.213,138.301 467.5,151.5C 465.816,152.15 464.483,153.15 463.5,154.5C 462.209,154.737 461.209,154.404 460.5,153.5C 461.649,153.209 462.316,152.376 462.5,151C 458.84,130.871 455.507,110.705 452.5,90.5 Z"/></g>
<g><path style="opacity:1" fill="#f48138" d="M 281.5,94.5 C 291.167,103.5 300.5,112.833 309.5,122.5C 308.127,122.343 306.793,122.51 305.5,123C 305.833,123.333 306.167,123.667 306.5,124C 303.598,125.973 301.264,128.473 299.5,131.5C 298.649,129.29 297.316,127.29 295.5,125.5C 293.581,126.612 291.914,127.946 290.5,129.5C 285.12,131.855 280.454,135.188 276.5,139.5C 274.574,140.242 272.741,141.242 271,142.5C 268.423,147.887 266.923,153.554 266.5,159.5C 264.596,162.534 263.262,165.867 262.5,169.5C 260.833,170.167 259.167,170.833 257.5,171.5C 257.167,170.833 256.833,170.167 256.5,169.5C 249.284,156.18 241.617,143.18 233.5,130.5C 240.167,123.167 247.167,116.167 254.5,109.5C 255.865,129.405 257.365,149.405 259,169.5C 266.561,144.415 274.061,119.415 281.5,94.5 Z"/></g>
<g><path style="opacity:0.569" fill="#fbf4c9" d="M 459.5,95.5 C 472.881,108.215 485.881,121.215 498.5,134.5C 497.167,133.833 495.833,133.167 494.5,132.5C 487.833,125.167 480.833,118.167 473.5,111.5C 468.438,106.443 463.772,101.11 459.5,95.5 Z"/></g>
<g><path style="opacity:0.424" fill="#fdf8d0" d="M 452.5,88.5 C 451.577,87.6971 450.577,87.5304 449.5,88C 442.297,95.0351 435.297,102.202 428.5,109.5C 418.167,119.167 408.167,129.167 398.5,139.5C 397.475,139.103 397.308,138.437 398,137.5C 415.414,120.086 432.748,102.752 450,85.5C 451.417,86.0779 452.25,87.0779 452.5,88.5 Z"/></g>
<g><path style="opacity:0.11" fill="#f9d2cd" d="M 419.5,100.5 C 415.5,105.167 411.167,109.5 406.5,113.5C 409.833,108.167 414.167,103.833 419.5,100.5 Z"/></g>
<g><path style="opacity:0.427" fill="#fddac3" d="M 322.5,135.5 C 322.167,135.5 321.833,135.5 321.5,135.5C 318.23,130.56 314.23,126.227 309.5,122.5C 300.5,112.833 291.167,103.5 281.5,94.5C 279.798,91.6052 277.464,89.7719 274.5,89C 267.631,95.7018 260.964,102.535 254.5,109.5C 247.167,116.167 240.167,123.167 233.5,130.5C 228.833,134.5 224.5,138.833 220.5,143.5C 216.167,147.167 212.167,151.167 208.5,155.5C 202.833,160.5 197.5,165.833 192.5,171.5C 191.375,172.348 191.375,173.348 192.5,174.5C 190.656,173.796 190.156,172.463 191,170.5C 219.014,142.32 247.18,114.32 275.5,86.5C 291.153,101.653 306.653,116.986 322,132.5C 322.483,133.448 322.649,134.448 322.5,135.5 Z"/></g>
<g><path style="opacity:0.012" fill="#f7e1dc" d="M 315.5,110.5 C 319.813,114.478 324.146,118.478 328.5,122.5C 330.167,121.167 331.833,119.833 333.5,118.5C 334.944,120.608 335.61,122.941 335.5,125.5C 334.59,123.981 333.757,122.315 333,120.5C 331.475,123.087 329.308,123.92 326.5,123C 322.23,119.239 318.563,115.072 315.5,110.5 Z"/></g>
<g><path style="opacity:1" fill="#f2e14a" d="M 473.5,111.5 C 480.833,118.167 487.833,125.167 494.5,132.5C 492.578,136.268 490.411,139.935 488,143.5C 481.568,150.755 475.401,158.089 469.5,165.5C 469.81,162.287 469.477,159.287 468.5,156.5C 467.365,154.787 465.698,154.12 463.5,154.5C 464.483,153.15 465.816,152.15 467.5,151.5C 471.213,138.301 473.213,124.967 473.5,111.5 Z"/></g>
<g><path style="opacity:0.153" fill="#f9dbd7" d="M 405.5,114.5 C 401.699,118.473 398.032,122.64 394.5,127C 393.5,127.667 392.5,127.667 391.5,127C 390.782,125.013 389.782,123.179 388.5,121.5C 386.261,122.788 383.928,123.788 381.5,124.5C 381.833,123.833 382.167,123.167 382.5,122.5C 384.757,122.038 386.757,121.038 388.5,119.5C 390.232,121.283 391.732,123.283 393,125.5C 396.761,121.23 400.928,117.563 405.5,114.5 Z"/></g>
<g><path style="opacity:1" fill="#f47c40" d="M 309.5,122.5 C 314.23,126.227 318.23,130.56 321.5,135.5C 317.823,139.011 313.989,142.344 310,145.5C 305.303,141.793 301.803,137.126 299.5,131.5C 301.264,128.473 303.598,125.973 306.5,124C 306.167,123.667 305.833,123.333 305.5,123C 306.793,122.51 308.127,122.343 309.5,122.5 Z"/></g>
<g><path style="opacity:0.114" fill="#f7dad5" d="M 381.5,124.5 C 379.66,126.669 377.326,128.002 374.5,128.5C 376.336,126.412 378.669,125.079 381.5,124.5 Z"/></g>
<g><path style="opacity:0.169" fill="#f6d5cf" d="M 374.5,128.5 C 371.322,131.258 367.655,133.258 363.5,134.5C 366.678,131.742 370.345,129.742 374.5,128.5 Z"/></g>
<g><path style="opacity:1" fill="#f4793d" d="M 233.5,130.5 C 241.617,143.18 249.284,156.18 256.5,169.5C 250.361,166.711 245.028,162.711 240.5,157.5C 233.767,153.893 227.933,149.226 223,143.5C 222.23,144.598 221.397,144.598 220.5,143.5C 224.5,138.833 228.833,134.5 233.5,130.5 Z"/></g>
<g><path style="opacity:1" fill="#fbea30" d="M 428.5,109.5 C 431.935,114.17 434.935,119.17 437.5,124.5C 437.137,125.183 436.804,125.85 436.5,126.5C 434.833,128.5 433.167,130.5 431.5,132.5C 428.883,133.786 426.55,135.453 424.5,137.5C 422.973,137.427 421.973,138.094 421.5,139.5C 417.575,141.031 413.575,142.364 409.5,143.5C 407.182,143.003 404.848,142.67 402.5,142.5C 401.738,140.738 400.404,139.738 398.5,139.5C 408.167,129.167 418.167,119.167 428.5,109.5 Z"/></g>
<g><path style="opacity:0.039" fill="#fefae0" d="M 431.5,132.5 C 430.008,135.323 427.674,136.99 424.5,137.5C 426.55,135.453 428.883,133.786 431.5,132.5 Z"/></g>
<g><path style="opacity:1" fill="#edde54" d="M 494.5,132.5 C 495.833,133.167 497.167,133.833 498.5,134.5C 499.415,136.754 500.748,138.754 502.5,140.5C 492.573,148.368 482.573,157.035 472.5,166.5C 471.542,166.953 470.708,167.619 470,168.5C 469.517,167.552 469.351,166.552 469.5,165.5C 475.401,158.089 481.568,150.755 488,143.5C 490.411,139.935 492.578,136.268 494.5,132.5 Z"/></g>
<g><path style="opacity:0.114" fill="#fee8d9" d="M 290.5,129.5 C 286.546,133.812 281.88,137.145 276.5,139.5C 280.454,135.188 285.12,131.855 290.5,129.5 Z"/></g>
<g><path style="opacity:0.247" fill="#f7ded9" d="M 335.5,125.5 C 337.076,128.352 338.576,131.352 340,134.5C 342.531,137.888 345.698,140.221 349.5,141.5C 348.399,142.598 347.066,142.765 345.5,142C 339.718,137.929 336.385,132.429 335.5,125.5 Z"/></g>
<g><path style="opacity:0.09" fill="#fefbe6" d="M 436.5,126.5 C 438.193,127.475 439.693,128.808 441,130.5C 442.856,133.556 444.689,136.556 446.5,139.5C 443.542,136.94 441.042,133.94 439,130.5C 437.667,131.833 436.333,131.833 435,130.5C 434.184,131.823 433.017,132.489 431.5,132.5C 433.167,130.5 434.833,128.5 436.5,126.5 Z"/></g>
<g><path style="opacity:0.416" fill="#f9f4d2" d="M 498.5,134.5 C 503.575,138.908 508.242,143.575 512.5,148.5C 511.5,147.833 510.5,147.167 509.5,146.5C 507.167,144.5 504.833,142.5 502.5,140.5C 500.748,138.754 499.415,136.754 498.5,134.5 Z"/></g>
<g><path style="opacity:0.318" fill="#f4ccc5" d="M 363.5,134.5 C 359.182,137.326 354.516,139.659 349.5,141.5C 350.306,140.272 351.306,139.272 352.5,138.5C 356.167,137.167 359.833,135.833 363.5,134.5 Z"/></g>
<g><path style="opacity:0.027" fill="#fefbe2" d="M 424.5,137.5 C 424.027,138.906 423.027,139.573 421.5,139.5C 421.973,138.094 422.973,137.427 424.5,137.5 Z"/></g>
<g><path style="opacity:0.588" fill="#fff7b9" d="M 398.5,139.5 C 400.404,139.738 401.738,140.738 402.5,142.5C 400.596,142.262 399.262,141.262 398.5,139.5 Z"/></g>
<g><path style="opacity:0.004" fill="#fcf8db" d="M 446.5,139.5 C 450.806,144.473 455.473,149.14 460.5,153.5C 461.209,154.404 462.209,154.737 463.5,154.5C 465.698,154.12 467.365,154.787 468.5,156.5C 468.5,160.833 468.5,165.167 468.5,169.5C 468.007,171.806 467.674,174.139 467.5,176.5C 467.5,177.833 467.5,179.167 467.5,180.5C 467.167,180.5 466.833,180.5 466.5,180.5C 467.103,172.501 467.27,164.501 467,156.5C 466.586,156.957 466.086,157.291 465.5,157.5C 465.167,156.833 464.833,156.167 464.5,155.5C 462.776,156.661 461.11,156.495 459.5,155C 454.18,150.526 449.846,145.359 446.5,139.5 Z"/></g>
<g><path style="opacity:1" fill="#f27341" d="M 220.5,143.5 C 221.397,144.598 222.23,144.598 223,143.5C 227.933,149.226 233.767,153.893 240.5,157.5C 245.028,162.711 250.361,166.711 256.5,169.5C 256.833,170.167 257.167,170.833 257.5,171.5C 250.512,169.342 243.512,167.175 236.5,165C 227.542,159.848 218.208,156.682 208.5,155.5C 212.167,151.167 216.167,147.167 220.5,143.5 Z"/></g>
<g><path style="opacity:0.176" fill="#fee6d4" d="M 276.5,139.5 C 275.492,141.339 273.992,142.672 272,143.5C 270.387,149.027 268.554,154.36 266.5,159.5C 266.923,153.554 268.423,147.887 271,142.5C 272.741,141.242 274.574,140.242 276.5,139.5 Z"/></g>
<g><path style="opacity:0.245" fill="#fffad3" d="M 421.5,139.5 C 419.062,141.535 416.395,143.201 413.5,144.5C 410.482,144.665 407.482,144.498 404.5,144C 403.584,143.722 402.918,143.222 402.5,142.5C 404.848,142.67 407.182,143.003 409.5,143.5C 413.575,142.364 417.575,141.031 421.5,139.5 Z"/></g>
<g><path style="opacity:0.443" fill="#ede6e1" d="M 299.5,131.5 C 301.803,137.126 305.303,141.793 310,145.5C 313.989,142.344 317.823,139.011 321.5,135.5C 321.833,135.5 322.167,135.5 322.5,135.5C 320.038,138.464 317.371,141.297 314.5,144C 316.087,144.862 317.754,145.529 319.5,146C 318.947,147.878 317.947,149.378 316.5,150.5C 316.539,149.417 316.873,148.417 317.5,147.5C 311.537,146.504 305.537,146.171 299.5,146.5C 299.007,151.649 297.341,156.316 294.5,160.5C 296.454,155.308 297.787,149.974 298.5,144.5C 300.584,143.752 302.584,143.752 304.5,144.5C 305.521,143.998 305.688,143.332 305,142.5C 300.922,138.016 297.589,133.016 295,127.5C 293.67,128.582 292.17,129.249 290.5,129.5C 291.914,127.946 293.581,126.612 295.5,125.5C 297.316,127.29 298.649,129.29 299.5,131.5 Z"/></g>
<g><path style="opacity:0.469" fill="#d2d3d5" d="M 413.5,144.5 C 422.213,144.248 430.88,144.748 439.5,146C 442.079,147.076 443.746,148.909 444.5,151.5C 442.66,149.832 440.66,148.332 438.5,147C 429.506,146.5 420.506,146.334 411.5,146.5C 411.712,150.345 410.712,153.679 408.5,156.5C 409.038,154.883 409.371,153.216 409.5,151.5C 408.68,147.721 410.013,145.388 413.5,144.5 Z"/></g>
<g><path style="opacity:1" fill="#e7d95f" d="M 502.5,140.5 C 504.833,142.5 507.167,144.5 509.5,146.5C 509.414,147.496 509.748,148.329 510.5,149C 499.103,154.737 488.103,160.403 477.5,166C 475.866,166.494 474.199,166.66 472.5,166.5C 482.573,157.035 492.573,148.368 502.5,140.5 Z"/></g>
<g><path style="opacity:1" fill="#e2d667" d="M 509.5,146.5 C 510.5,147.167 511.5,147.833 512.5,148.5C 512.427,150.027 513.094,151.027 514.5,151.5C 515.413,153.086 515.413,154.586 514.5,156C 515.167,156.333 515.833,156.667 516.5,157C 503.115,160.67 489.448,164.67 475.5,169C 473.19,169.497 470.857,169.663 468.5,169.5C 468.5,165.167 468.5,160.833 468.5,156.5C 469.477,159.287 469.81,162.287 469.5,165.5C 469.351,166.552 469.517,167.552 470,168.5C 470.708,167.619 471.542,166.953 472.5,166.5C 474.199,166.66 475.866,166.494 477.5,166C 488.103,160.403 499.103,154.737 510.5,149C 509.748,148.329 509.414,147.496 509.5,146.5 Z"/></g>
<g><path style="opacity:0.004" fill="#faf8e9" d="M 512.5,148.5 C 514.911,149.517 516.578,151.184 517.5,153.5C 516.5,152.833 515.5,152.167 514.5,151.5C 513.094,151.027 512.427,150.027 512.5,148.5 Z"/></g>
<g><path style="opacity:0.165" fill="#faf7e9" d="M 517.5,153.5 C 520.833,154.833 523.167,157.167 524.5,160.5C 523.761,160.631 523.094,160.464 522.5,160C 520.797,157.828 519.13,155.661 517.5,153.5 Z"/></g>
<g><path style="opacity:0.106" fill="#ebebec" d="M 366.5,169.5 C 364.967,174.261 363.134,178.928 361,183.5C 361.906,170.843 363.072,158.176 364.5,145.5C 361.455,145.508 358.455,145.841 355.5,146.5C 357.871,145.009 360.538,144.009 363.5,143.5C 364.478,143.977 365.311,144.643 366,145.5C 365.111,152.928 364.278,160.428 363.5,168C 363.667,169.167 363.833,170.333 364,171.5C 364.708,170.619 365.542,169.953 366.5,169.5 Z"/></g>
<g><path style="opacity:1" fill="#f26d45" d="M 208.5,155.5 C 218.208,156.682 227.542,159.848 236.5,165C 243.512,167.175 250.512,169.342 257.5,171.5C 259.167,170.833 260.833,170.167 262.5,169.5C 262.443,170.609 262.11,171.609 261.5,172.5C 241.797,171.775 222.131,170.442 202.5,168.5C 200.5,168.667 198.5,168.833 196.5,169C 195.529,170.481 194.196,171.315 192.5,171.5C 197.5,165.833 202.833,160.5 208.5,155.5 Z"/></g>
<g><path style="opacity:0.004" fill="#fcfbf6" d="M 524.5,160.5 C 526.5,160.5 527.5,161.5 527.5,163.5C 526.167,162.833 525.167,161.833 524.5,160.5 Z"/></g>
<g><path style="opacity:0.013" fill="#e7e8e8" d="M 409.5,151.5 C 409.371,153.216 409.038,154.883 408.5,156.5C 406.871,161.076 404.871,165.409 402.5,169.5C 400.681,175.794 398.181,181.794 395,187.5C 395.83,183.163 396.996,178.829 398.5,174.5C 398.563,172.519 397.896,170.852 396.5,169.5C 402.866,164.769 406.032,158.435 406,150.5C 404.833,149.333 403.667,148.167 402.5,147C 392.839,146.5 383.172,146.334 373.5,146.5C 372.623,152.47 371.956,158.47 371.5,164.5C 368.8,165.2 367.133,166.866 366.5,169.5C 369.341,161.478 371.674,153.311 373.5,145C 383.526,144.387 393.526,144.721 403.5,146C 405.81,147.637 407.31,149.804 408,152.5C 408.383,151.944 408.883,151.611 409.5,151.5 Z M 402.5,166.5 C 402.5,167.5 402.5,168.5 402.5,169.5C 401.542,169.953 400.708,170.619 400,171.5C 399.253,169.072 400.086,167.406 402.5,166.5 Z"/></g>
<g><path style="opacity:0.008" fill="#faf8ed" d="M 527.5,163.5 C 530.189,164.189 531.856,165.856 532.5,168.5C 530.451,167.118 528.785,165.452 527.5,163.5 Z"/></g>
<g><path style="opacity:1" fill="#f26848" d="M 261.5,172.5 C 261.737,173.791 261.404,174.791 260.5,175.5C 259.448,173.744 257.781,173.077 255.5,173.5C 240.478,178.784 225.145,184.118 209.5,189.5C 207.098,187.091 204.431,185.091 201.5,183.5C 199.5,179.5 196.5,176.5 192.5,174.5C 191.375,173.348 191.375,172.348 192.5,171.5C 194.196,171.315 195.529,170.481 196.5,169C 198.5,168.833 200.5,168.667 202.5,168.5C 222.131,170.442 241.797,171.775 261.5,172.5 Z"/></g>
<g><path style="opacity:0.018" fill="#f4f4f4" d="M 292.5,165.5 C 290.627,172.236 287.961,178.57 284.5,184.5C 286.403,177.776 289.069,171.443 292.5,165.5 Z"/></g>
<g><path style="opacity:1" fill="#d9cf73" d="M 514.5,151.5 C 515.5,152.167 516.5,152.833 517.5,153.5C 519.13,155.661 520.797,157.828 522.5,160C 523.094,160.464 523.761,160.631 524.5,160.5C 525.167,161.833 526.167,162.833 527.5,163.5C 528.785,165.452 530.451,167.118 532.5,168.5C 533.434,170.239 533.434,171.905 532.5,173.5C 528.813,176.855 525.147,180.189 521.5,183.5C 521.389,182.883 521.056,182.383 520.5,182C 516.27,180.956 512.103,179.789 508,178.5C 507.667,178.833 507.333,179.167 507,179.5C 495.589,177.185 484.089,175.185 472.5,173.5C 470.901,173.232 469.568,173.566 468.5,174.5C 468.672,175.492 468.338,176.158 467.5,176.5C 467.674,174.139 468.007,171.806 468.5,169.5C 470.857,169.663 473.19,169.497 475.5,169C 489.448,164.67 503.115,160.67 516.5,157C 515.833,156.667 515.167,156.333 514.5,156C 515.413,154.586 515.413,153.086 514.5,151.5 Z"/></g>
<g><path style="opacity:1" fill="#e6da6e" d="M 468.5,174.5 C 469.568,173.566 470.901,173.232 472.5,173.5C 480.541,177.465 488.874,180.965 497.5,184C 499,184.833 500.167,186 501,187.5C 501.414,187.043 501.914,186.709 502.5,186.5C 506.466,187.725 510.132,189.392 513.5,191.5C 512.375,193.129 511.041,194.629 509.5,196C 495.171,196.5 480.837,196.667 466.5,196.5C 465.167,191.167 465.167,185.833 466.5,180.5C 466.833,180.5 467.167,180.5 467.5,180.5C 467.5,185.5 467.5,190.5 467.5,195.5C 471.833,195.5 476.167,195.5 480.5,195.5C 486.206,195.829 491.872,195.495 497.5,194.5C 490.638,189.472 483.638,184.638 476.5,180C 475.021,176.428 472.354,174.594 468.5,174.5 Z"/></g>
<g><path style="opacity:1" fill="#ded26d" d="M 472.5,173.5 C 484.089,175.185 495.589,177.185 507,179.5C 507.333,179.167 507.667,178.833 508,178.5C 512.103,179.789 516.27,180.956 520.5,182C 521.056,182.383 521.389,182.883 521.5,183.5C 519.167,186.5 516.5,189.167 513.5,191.5C 510.132,189.392 506.466,187.725 502.5,186.5C 501.914,186.709 501.414,187.043 501,187.5C 500.167,186 499,184.833 497.5,184C 488.874,180.965 480.541,177.465 472.5,173.5 Z"/></g>
<g><path style="opacity:0.529" fill="#fdd3c2" d="M 192.5,174.5 C 196.5,176.5 199.5,179.5 201.5,183.5C 198.167,180.833 195.167,177.833 192.5,174.5 Z"/></g>
<g><path style="opacity:1" fill="#f16351" d="M 255.5,173.5 C 248.501,181.342 240.501,187.842 231.5,193C 236.645,194.446 241.979,194.946 247.5,194.5C 252.833,194.5 258.167,194.5 263.5,194.5C 247.911,195.499 231.578,195.832 214.5,195.5C 212.833,193.5 211.167,191.5 209.5,189.5C 225.145,184.118 240.478,178.784 255.5,173.5 Z"/></g>
<g><path style="opacity:1" fill="#ef5351" d="M 255.5,173.5 C 257.781,173.077 259.448,173.744 260.5,175.5C 259.908,178.127 259.575,180.794 259.5,183.5C 259.167,183.5 258.833,183.5 258.5,183.5C 258.664,180.813 258.497,178.146 258,175.5C 254.03,181.281 250.197,187.114 246.5,193C 247.056,193.383 247.389,193.883 247.5,194.5C 241.979,194.946 236.645,194.446 231.5,193C 240.501,187.842 248.501,181.342 255.5,173.5 Z"/></g>
<g><path style="opacity:0.122" fill="#fddbcf" d="M 266.5,159.5 C 264.944,167.824 262.61,175.824 259.5,183.5C 259.575,180.794 259.908,178.127 260.5,175.5C 261.404,174.791 261.737,173.791 261.5,172.5C 262.11,171.609 262.443,170.609 262.5,169.5C 263.262,165.867 264.596,162.534 266.5,159.5 Z"/></g>
<g><path style="opacity:0.009" fill="#f1f2f2" d="M 342.5,190.5 C 341.596,191.209 341.263,192.209 341.5,193.5C 340.876,193.083 340.543,192.416 340.5,191.5C 342.285,187.994 343.118,184.328 343,180.5C 342.282,179.549 341.449,179.383 340.5,180C 339.672,181.992 338.339,183.492 336.5,184.5C 337.274,179.273 340.274,176.94 345.5,177.5C 345.133,182.003 344.133,186.336 342.5,190.5 Z"/></g>
<g><path style="opacity:1" fill="#ecdd56" d="M 468.5,174.5 C 472.354,174.594 475.021,176.428 476.5,180C 483.638,184.638 490.638,189.472 497.5,194.5C 491.872,195.495 486.206,195.829 480.5,195.5C 477.967,190.105 475.133,184.771 472,179.5C 469.907,176.862 468.407,177.196 467.5,180.5C 467.5,179.167 467.5,177.833 467.5,176.5C 468.338,176.158 468.672,175.492 468.5,174.5 Z"/></g>
<g><path style="opacity:0.01" fill="#eeeeef" d="M 339.5,149.5 C 339.5,148.5 339.5,147.5 339.5,146.5C 333.5,146.5 327.5,146.5 321.5,146.5C 317.428,162.305 311.428,177.305 303.5,191.5C 302.662,191.842 302.328,192.508 302.5,193.5C 302.167,193.5 301.833,193.5 301.5,193.5C 300.833,193.5 300.167,193.5 299.5,193.5C 292.978,193.823 286.645,193.49 280.5,192.5C 286.833,192.5 293.167,192.5 299.5,192.5C 299.869,186.555 301.369,180.888 304,175.5C 307.528,167.916 310.861,160.249 314,152.5C 314.708,151.619 315.542,150.953 316.5,150.5C 313.299,158.931 309.799,167.265 306,175.5C 304.52,179.072 303.854,182.738 304,186.5C 310.832,173.342 316.499,159.675 321,145.5C 327.418,144.357 333.918,144.19 340.5,145C 341.916,146.915 341.582,148.415 339.5,149.5 Z"/></g>
<g><path style="opacity:0.608" fill="#fdd0c1" d="M 201.5,183.5 C 204.431,185.091 207.098,187.091 209.5,189.5C 211.167,191.5 212.833,193.5 214.5,195.5C 214.167,195.5 213.833,195.5 213.5,195.5C 209.167,191.833 205.167,187.833 201.5,183.5 Z"/></g>
<g><path style="opacity:1" fill="#f1e14b" d="M 480.5,195.5 C 476.167,195.5 471.833,195.5 467.5,195.5C 467.5,190.5 467.5,185.5 467.5,180.5C 468.407,177.196 469.907,176.862 472,179.5C 475.133,184.771 477.967,190.105 480.5,195.5 Z"/></g>
<g><path style="opacity:0.886" fill="#9e9797" d="M 366.5,169.5 C 367.133,166.866 368.8,165.2 371.5,164.5C 371.956,158.47 372.623,152.47 373.5,146.5C 383.172,146.334 392.839,146.5 402.5,147C 403.667,148.167 404.833,149.333 406,150.5C 406.032,158.435 402.866,164.769 396.5,169.5C 397.896,170.852 398.563,172.519 398.5,174.5C 396.996,178.829 395.83,183.163 395,187.5C 398.181,181.794 400.681,175.794 402.5,169.5C 404.871,165.409 406.871,161.076 408.5,156.5C 410.712,153.679 411.712,150.345 411.5,146.5C 420.506,146.334 429.506,146.5 438.5,147C 440.66,148.332 442.66,149.832 444.5,151.5C 443.005,164.155 438.838,175.821 432,186.5C 427.979,190.399 423.145,192.566 417.5,193C 406.167,193.667 394.833,193.667 383.5,193C 378.374,190.447 377.207,186.614 380,181.5C 381.586,178.659 383.42,175.993 385.5,173.5C 383.833,172.167 382.167,172.167 380.5,173.5C 378.492,178.529 376.492,183.529 374.5,188.5C 373.566,189.568 373.232,190.901 373.5,192.5C 362.779,193.142 352.446,192.475 342.5,190.5C 344.133,186.336 345.133,182.003 345.5,177.5C 340.274,176.94 337.274,179.273 336.5,184.5C 335.11,185.899 334.11,187.566 333.5,189.5C 332.596,190.209 332.263,191.209 332.5,192.5C 322.652,192.827 312.986,192.494 303.5,191.5C 311.428,177.305 317.428,162.305 321.5,146.5C 327.5,146.5 333.5,146.5 339.5,146.5C 339.5,147.5 339.5,148.5 339.5,149.5C 338.542,149.953 337.708,150.619 337,151.5C 331.156,163.165 326.489,175.165 323,187.5C 329.725,178.44 336.058,169.107 342,159.5C 345.736,154.262 350.236,149.929 355.5,146.5C 358.455,145.841 361.455,145.508 364.5,145.5C 363.072,158.176 361.906,170.843 361,183.5C 363.134,178.928 364.967,174.261 366.5,169.5 Z M 402.5,166.5 C 402.5,167.5 402.5,168.5 402.5,169.5C 401.542,169.953 400.708,170.619 400,171.5C 399.253,169.072 400.086,167.406 402.5,166.5 Z"/></g>
<g><path style="opacity:1" fill="#bd4945" d="M 353.5,151.5 C 352.952,153.626 352.285,155.626 351.5,157.5C 351.607,155.621 351.107,155.288 350,156.5C 346.697,161.969 343.197,167.302 339.5,172.5C 342.768,173.487 346.102,173.82 349.5,173.5C 349.785,176.829 349.118,179.829 347.5,182.5C 347.674,180.139 348.007,177.806 348.5,175.5C 344.818,175.335 341.152,175.501 337.5,176C 334.451,180.531 332.118,185.364 330.5,190.5C 328.143,190.663 325.81,190.497 323.5,190C 325,188.5 326.5,187 328,185.5C 333.752,176.328 339.752,167.328 346,158.5C 348.09,155.572 350.59,153.239 353.5,151.5 Z"/></g>
<g><path style="opacity:0.01" fill="#eeefef" d="M 355.5,146.5 C 350.236,149.929 345.736,154.262 342,159.5C 336.058,169.107 329.725,178.44 323,187.5C 326.489,175.165 331.156,163.165 337,151.5C 337.708,150.619 338.542,149.953 339.5,149.5C 335.921,156.998 332.588,164.665 329.5,172.5C 329.833,172.833 330.167,173.167 330.5,173.5C 335.743,167.352 340.243,160.685 344,153.5C 347.238,150.077 351.071,147.743 355.5,146.5 Z"/></g>
<g><path style="opacity:1" fill="#c04041" d="M 386.5,170.5 C 386.5,170.167 386.5,169.833 386.5,169.5C 389.602,169.154 392.435,169.821 395,171.5C 394.673,177.951 393.839,184.285 392.5,190.5C 389.482,190.665 386.482,190.498 383.5,190C 381.604,188.192 381.104,186.025 382,183.5C 384.549,180.235 386.716,176.735 388.5,173C 388.361,171.699 387.695,170.866 386.5,170.5 Z"/></g>
<g><path style="opacity:0.671" fill="#9a8d8a" d="M 351.5,157.5 C 350.507,162.777 349.84,168.11 349.5,173.5C 346.102,173.82 342.768,173.487 339.5,172.5C 343.197,167.302 346.697,161.969 350,156.5C 351.107,155.288 351.607,155.621 351.5,157.5 Z"/></g>
<g><path style="opacity:1" fill="#b3695d" d="M 381.5,165.5 C 381.62,166.586 382.287,167.253 383.5,167.5C 384.849,167.154 386.183,166.821 387.5,166.5C 387.5,167.167 387.833,167.5 388.5,167.5C 387.833,168.167 387.167,168.833 386.5,169.5C 386.5,169.833 386.5,170.167 386.5,170.5C 384.167,170.5 381.833,170.5 379.5,170.5C 380.952,169.698 382.618,169.198 384.5,169C 383.207,168.51 381.873,168.343 380.5,168.5C 380.263,167.209 380.596,166.209 381.5,165.5 Z"/></g>
<g><path style="opacity:0.699" fill="#9a8f8c" d="M 387.5,149.5 C 391.931,148.53 394.265,150.197 394.5,154.5C 393.263,159.294 390.93,163.294 387.5,166.5C 386.183,166.821 384.849,167.154 383.5,167.5C 382.287,167.253 381.62,166.586 381.5,165.5C 383.5,160.167 385.5,154.833 387.5,149.5 Z"/></g>
<g><path style="opacity:1" fill="#90574c" d="M 389.5,152.5 C 391.344,153.204 391.844,154.537 391,156.5C 389.906,159.692 388.073,162.358 385.5,164.5C 385.761,160.382 387.094,156.382 389.5,152.5 Z"/></g>
<g><path style="opacity:1" fill="#c13d3f" d="M 347.5,182.5 C 349.118,179.829 349.785,176.829 349.5,173.5C 349.84,168.11 350.507,162.777 351.5,157.5C 352.285,155.626 352.952,153.626 353.5,151.5C 355.792,149.733 358.458,148.733 361.5,148.5C 359.81,162.467 358.477,176.467 357.5,190.5C 353.5,190.5 349.5,190.5 345.5,190.5C 345.584,187.673 346.25,185.006 347.5,182.5 Z"/></g>
<g><path style="opacity:1" fill="#c03f40" d="M 424.5,150.5 C 420.399,158.604 416.565,166.938 413,175.5C 410.987,180.037 409.487,184.704 408.5,189.5C 414.49,189.901 418.99,187.568 422,182.5C 427.569,172.797 430.902,162.464 432,151.5C 431.329,150.748 430.496,150.414 429.5,150.5C 431.265,149.539 433.265,149.205 435.5,149.5C 437.582,149.472 439.416,150.139 441,151.5C 440.834,164.997 436.334,176.83 427.5,187C 425.283,188.275 422.949,189.275 420.5,190C 412.479,190.832 404.479,190.665 396.5,189.5C 402.942,177.173 408.608,164.506 413.5,151.5C 417.028,149.325 420.695,148.992 424.5,150.5 Z"/></g>
<g><path style="opacity:1" fill="#999494" d="M 424.5,150.5 C 426.167,150.5 427.833,150.5 429.5,150.5C 430.496,150.414 431.329,150.748 432,151.5C 430.902,162.464 427.569,172.797 422,182.5C 418.99,187.568 414.49,189.901 408.5,189.5C 409.487,184.704 410.987,180.037 413,175.5C 416.565,166.938 420.399,158.604 424.5,150.5 Z"/></g>
<g><path style="opacity:1" fill="#c04041" d="M 400.5,149.5 C 402.246,150.249 403.246,151.583 403.5,153.5C 402.299,162.371 397.299,167.038 388.5,167.5C 387.833,167.5 387.5,167.167 387.5,166.5C 390.93,163.294 393.263,159.294 394.5,154.5C 394.616,150.725 396.616,149.058 400.5,149.5 Z"/></g>
<g><path style="opacity:1" fill="#c13e3f" d="M 387.5,149.5 C 385.5,154.833 383.5,160.167 381.5,165.5C 380.596,166.209 380.263,167.209 380.5,168.5C 381.873,168.343 383.207,168.51 384.5,169C 382.618,169.198 380.952,169.698 379.5,170.5C 376.931,175.985 374.597,181.651 372.5,187.5C 368.972,189.675 365.305,190.008 361.5,188.5C 365.401,180.704 368.734,172.704 371.5,164.5C 372.755,160.421 374.422,156.421 376.5,152.5C 377.404,151.791 377.737,150.791 377.5,149.5C 380.833,149.5 384.167,149.5 387.5,149.5 Z"/></g>
<g><path style="opacity:1" fill="#c03f40" d="M 334.5,150.5 C 328.308,163.412 323.308,176.746 319.5,190.5C 315.445,190.824 311.445,190.491 307.5,189.5C 313.94,177.288 319.273,164.622 323.5,151.5C 327.028,149.325 330.695,148.992 334.5,150.5 Z"/></g>
<g><path style="opacity:1" fill="#af6f63" d="M 334.5,150.5 C 330.695,148.992 327.028,149.325 323.5,151.5C 323.5,150.5 323.5,149.5 323.5,148.5C 327.555,148.176 331.555,148.509 335.5,149.5C 335.376,150.107 335.043,150.44 334.5,150.5 Z"/></g>
<g><path style="opacity:1" fill="#b8554c" d="M 435.5,149.5 C 433.265,149.205 431.265,149.539 429.5,150.5C 427.833,150.5 426.167,150.5 424.5,150.5C 420.695,148.992 417.028,149.325 413.5,151.5C 413.5,150.5 413.5,149.5 413.5,148.5C 421.019,148.175 428.352,148.508 435.5,149.5 Z"/></g>
<g><path style="opacity:1" fill="#b8564d" d="M 400.5,149.5 C 396.616,149.058 394.616,150.725 394.5,154.5C 394.265,150.197 391.931,148.53 387.5,149.5C 384.167,149.5 380.833,149.5 377.5,149.5C 377.737,150.791 377.404,151.791 376.5,152.5C 376.5,151.167 376.5,149.833 376.5,148.5C 384.684,148.174 392.684,148.508 400.5,149.5 Z"/></g>
<g><path style="opacity:0.015" fill="#f8f6f5" d="M 444.5,151.5 C 445.56,155.372 445.393,159.372 444,163.5C 441.455,174.504 436.289,184.004 428.5,192C 424.262,193.542 420.262,195.375 416.5,197.5C 414.901,197.232 413.568,197.566 412.5,198.5C 411.833,198.5 411.5,198.833 411.5,199.5C 411.167,199.5 410.833,199.5 410.5,199.5C 410.423,198.25 409.756,197.417 408.5,197C 406.613,196.22 404.946,196.387 403.5,197.5C 401.5,197.5 399.5,197.5 397.5,197.5C 397.158,196.662 396.492,196.328 395.5,196.5C 394.399,195.402 393.066,195.235 391.5,196C 392.416,196.278 393.082,196.778 393.5,197.5C 391.833,197.5 390.167,197.5 388.5,197.5C 388.167,196.167 387.833,196.167 387.5,197.5C 386.5,197.5 385.5,197.5 384.5,197.5C 382.319,195.982 379.819,194.982 377,194.5C 376.5,194.833 376,195.167 375.5,195.5C 376.243,196.182 376.909,196.849 377.5,197.5C 370.978,197.177 364.645,197.51 358.5,198.5C 359.942,201.23 360.942,204.23 361.5,207.5C 362.168,204.694 362.834,202.028 363.5,199.5C 364.789,200.637 365.789,201.97 366.5,203.5C 365.448,203.351 364.448,203.517 363.5,204C 364.406,205.699 364.739,207.533 364.5,209.5C 361.956,209.896 359.789,209.229 358,207.5C 357.329,208.252 356.496,208.586 355.5,208.5C 356.473,206.932 356.64,205.265 356,203.5C 354.414,202.624 352.914,201.624 351.5,200.5C 353.259,199.246 354.759,199.579 356,201.5C 356.483,200.552 356.649,199.552 356.5,198.5C 356.5,198.167 356.5,197.833 356.5,197.5C 356.715,196.266 356.048,196.266 354.5,197.5C 354.167,197.5 353.833,197.5 353.5,197.5C 352.084,195.149 350.417,195.149 348.5,197.5C 347.5,197.5 346.5,197.5 345.5,197.5C 344.167,196.167 342.833,194.833 341.5,193.5C 352.5,193.5 363.5,193.5 374.5,193.5C 374.5,191.833 374.5,190.167 374.5,188.5C 376.492,183.529 378.492,178.529 380.5,173.5C 382.167,172.167 383.833,172.167 385.5,173.5C 383.42,175.993 381.586,178.659 380,181.5C 377.207,186.614 378.374,190.447 383.5,193C 394.833,193.667 406.167,193.667 417.5,193C 423.145,192.566 427.979,190.399 432,186.5C 438.838,175.821 443.005,164.155 444.5,151.5 Z M 384.5,197.5 C 382.167,197.5 379.833,197.5 377.5,197.5C 376.909,196.849 376.243,196.182 375.5,195.5C 376,195.167 376.5,194.833 377,194.5C 379.819,194.982 382.319,195.982 384.5,197.5 Z M 353.5,197.5 C 352.027,196.929 350.36,196.929 348.5,197.5C 350.417,195.149 352.084,195.149 353.5,197.5 Z M 395.5,196.5 C 394.833,196.833 394.167,197.167 393.5,197.5C 393.082,196.778 392.416,196.278 391.5,196C 393.066,195.235 394.399,195.402 395.5,196.5 Z"/></g>
<g><path style="opacity:1" fill="#ee4157" d="M 258.5,183.5 C 257.527,185.068 257.36,186.735 258,188.5C 260.04,190.37 261.873,192.37 263.5,194.5C 258.167,194.5 252.833,194.5 247.5,194.5C 247.389,193.883 247.056,193.383 246.5,193C 250.197,187.114 254.03,181.281 258,175.5C 258.497,178.146 258.664,180.813 258.5,183.5 Z"/></g>
<g><path style="opacity:0.92" fill="#9f9898" d="M 316.5,150.5 C 315.542,150.953 314.708,151.619 314,152.5C 310.861,160.249 307.528,167.916 304,175.5C 301.369,180.888 299.869,186.555 299.5,192.5C 293.167,192.5 286.833,192.5 280.5,192.5C 282.314,190.035 283.647,187.368 284.5,184.5C 287.961,178.57 290.627,172.236 292.5,165.5C 292.402,163.447 293.069,161.78 294.5,160.5C 297.341,156.316 299.007,151.649 299.5,146.5C 305.537,146.171 311.537,146.504 317.5,147.5C 316.873,148.417 316.539,149.417 316.5,150.5 Z"/></g>
<g><path style="opacity:1" fill="#c13e40" d="M 312.5,150.5 C 306.074,163.359 300.741,176.692 296.5,190.5C 292.774,190.823 289.107,190.489 285.5,189.5C 291.42,177.071 296.753,164.405 301.5,151.5C 305.028,149.325 308.695,148.992 312.5,150.5 Z"/></g>
<g><path style="opacity:1" fill="#af6f63" d="M 312.5,150.5 C 308.695,148.992 305.028,149.325 301.5,151.5C 301.5,150.5 301.5,149.5 301.5,148.5C 305.555,148.176 309.555,148.509 313.5,149.5C 313.376,150.107 313.043,150.44 312.5,150.5 Z"/></g>
<g><path style="opacity:0.971" fill="#b66055" d="M 372.5,187.5 C 372.5,188.5 372.5,189.5 372.5,190.5C 368.445,190.824 364.445,190.491 360.5,189.5C 360.624,188.893 360.957,188.56 361.5,188.5C 365.305,190.008 368.972,189.675 372.5,187.5 Z"/></g>
<g><path style="opacity:0.016" fill="#fcf4f1" d="M 284.5,184.5 C 283.647,187.368 282.314,190.035 280.5,192.5C 286.645,193.49 292.978,193.823 299.5,193.5C 298.657,195.173 297.324,196.34 295.5,197C 296,197.167 296.5,197.333 297,197.5C 299.195,197.045 301.362,196.711 303.5,196.5C 302.807,195.482 302.141,194.482 301.5,193.5C 301.833,193.5 302.167,193.5 302.5,193.5C 312.833,193.5 323.167,193.5 333.5,193.5C 333.5,192.167 333.5,190.833 333.5,189.5C 334.11,187.566 335.11,185.899 336.5,184.5C 336.157,188.721 334.823,192.554 332.5,196C 329.029,195.232 325.529,195.398 322,196.5C 320.457,197.577 320.457,198.911 322,200.5C 322.483,199.552 322.649,198.552 322.5,197.5C 324.5,197.5 326.5,197.5 328.5,197.5C 328.337,199.857 328.503,202.19 329,204.5C 330.545,203.179 331.711,203.512 332.5,205.5C 332.058,206.739 331.391,207.739 330.5,208.5C 330.649,207.448 330.483,206.448 330,205.5C 328.989,206.337 327.822,206.67 326.5,206.5C 326.813,203.753 326.48,201.086 325.5,198.5C 324.893,198.624 324.56,198.957 324.5,199.5C 324.5,202.5 324.5,205.5 324.5,208.5C 326.167,208.5 327.833,208.5 329.5,208.5C 324.328,209.466 319.328,209.466 314.5,208.5C 310.615,208.941 306.281,208.941 301.5,208.5C 303.432,205.823 303.932,202.823 303,199.5C 299.242,197.608 296.742,198.608 295.5,202.5C 294.549,201.081 294.216,199.415 294.5,197.5C 292.708,197.366 291.042,197.699 289.5,198.5C 287.393,197.532 285.059,197.198 282.5,197.5C 280.841,196.166 279.508,194.499 278.5,192.5C 280.171,189.508 282.171,186.841 284.5,184.5 Z M 299.5,193.5 C 300.167,193.5 300.833,193.5 301.5,193.5C 302.141,194.482 302.807,195.482 303.5,196.5C 301.362,196.711 299.195,197.045 297,197.5C 296.5,197.333 296,197.167 295.5,197C 297.324,196.34 298.657,195.173 299.5,193.5 Z M 314.5,197.5 C 315.601,196.402 316.934,196.235 318.5,197C 316.789,198.435 315.622,200.269 315,202.5C 315.096,200.619 314.929,198.953 314.5,197.5 Z"/></g>
<g><path style="opacity:0.497" fill="#c5c6c8" d="M 333.5,189.5 C 333.5,190.833 333.5,192.167 333.5,193.5C 323.167,193.5 312.833,193.5 302.5,193.5C 302.328,192.508 302.662,191.842 303.5,191.5C 312.986,192.494 322.652,192.827 332.5,192.5C 332.263,191.209 332.596,190.209 333.5,189.5 Z"/></g>
<g><path style="opacity:0.561" fill="#b8b9bb" d="M 374.5,188.5 C 374.5,190.167 374.5,191.833 374.5,193.5C 363.5,193.5 352.5,193.5 341.5,193.5C 341.263,192.209 341.596,191.209 342.5,190.5C 352.446,192.475 362.779,193.142 373.5,192.5C 373.232,190.901 373.566,189.568 374.5,188.5 Z"/></g>
<g><path style="opacity:0.004" fill="#fdfefd" d="M 513.5,194.5 C 514.833,195.167 514.833,195.167 513.5,194.5 Z"/></g>
<g><path style="opacity:0.205" fill="#faf6e2" d="M 532.5,168.5 C 535.297,169.355 535.964,171.021 534.5,173.5C 528.985,178.184 524.151,183.517 520,189.5C 518.195,191.826 516.028,193.492 513.5,194.5C 511.871,195.625 510.371,196.959 509,198.5C 508.617,197.944 508.117,197.611 507.5,197.5C 498.833,197.5 490.167,197.5 481.5,197.5C 480.833,197.5 480.167,197.5 479.5,197.5C 475.671,196.931 472.337,197.598 469.5,199.5C 468.833,199.5 468.5,199.833 468.5,200.5C 467.5,199.833 466.5,199.167 465.5,198.5C 465.5,198.167 465.5,197.833 465.5,197.5C 466.167,197.5 466.5,197.167 466.5,196.5C 480.837,196.667 495.171,196.5 509.5,196C 511.041,194.629 512.375,193.129 513.5,191.5C 516.5,189.167 519.167,186.5 521.5,183.5C 525.147,180.189 528.813,176.855 532.5,173.5C 533.434,171.905 533.434,170.239 532.5,168.5 Z"/></g>
<g><path style="opacity:0.961" fill="#f1937d" d="M 394.5,199.5 C 393.087,209.843 391.92,209.843 391,199.5C 390.617,200.056 390.117,200.389 389.5,200.5C 388.957,200.44 388.624,200.107 388.5,199.5C 389.667,199.167 390.833,198.833 392,198.5C 393.89,198.37 394.723,198.704 394.5,199.5 Z"/></g>
<g><path style="opacity:0.929" fill="#f0937e" d="M 412.5,198.5 C 418.204,198.146 420.037,200.813 418,206.5C 417.282,207.451 416.449,207.617 415.5,207C 417.553,205.322 417.887,203.489 416.5,201.5C 415.923,199.348 414.756,199.015 413,200.5C 412.719,203.097 412.552,205.43 412.5,207.5C 410.225,205.168 409.892,202.502 411.5,199.5C 411.5,198.833 411.833,198.5 412.5,198.5 Z M 416.5,201.5 C 414.871,206.67 414.038,206.67 414,201.5C 414.77,200.402 415.603,200.402 416.5,201.5 Z"/></g>
<g><path style="opacity:0.847" fill="#f1947f" d="M 447.5,201.5 C 446.923,199.348 445.756,199.015 444,200.5C 443.211,202.712 443.378,204.712 444.5,206.5C 444.158,207.338 443.492,207.672 442.5,207.5C 441.781,205.236 441.448,202.903 441.5,200.5C 443.757,198.416 446.257,198.083 449,199.5C 449.528,200.816 449.028,201.483 447.5,201.5 Z"/></g>
<g><path style="opacity:0.847" fill="#f4a18e" d="M 501.5,201.5 C 500.791,200.596 499.791,200.263 498.5,200.5C 497.539,202.265 497.205,204.265 497.5,206.5C 494.86,204.121 494.86,201.621 497.5,199C 499.473,198.505 501.473,198.338 503.5,198.5C 503.715,200.179 503.048,201.179 501.5,201.5 Z"/></g>
<g><path style="opacity:0.951" fill="#f29783" d="M 377.5,198.5 C 378.844,201.639 378.344,201.972 376,199.5C 375.502,202.482 375.335,205.482 375.5,208.5C 374.5,208.5 373.5,208.5 372.5,208.5C 372.5,207.833 372.5,207.167 372.5,206.5C 373.629,204.372 373.796,202.039 373,199.5C 372.292,200.381 371.458,201.047 370.5,201.5C 370.5,200.5 370.5,199.5 370.5,198.5C 372.833,198.5 375.167,198.5 377.5,198.5 Z"/></g>
<g><path style="opacity:0.976" fill="#ec7762" d="M 404.5,198.5 C 404.631,199.239 404.464,199.906 404,200.5C 402.644,199.62 401.144,199.286 399.5,199.5C 399.354,201.942 400.187,202.609 402,201.5C 402.866,203.896 402.366,204.563 400.5,203.5C 399.614,204.325 399.281,205.325 399.5,206.5C 398.493,204.639 398.16,201.972 398.5,198.5C 400.5,198.5 402.5,198.5 404.5,198.5 Z"/></g>
<g><path style="opacity:0.526" fill="#f4b7a6" d="M 312.5,207.5 C 312.608,205.486 311.942,203.82 310.5,202.5C 311.161,201.282 311.828,199.949 312.5,198.5C 313.803,201.645 313.803,204.645 312.5,207.5 Z"/></g>
<g><path style="opacity:0.91" fill="#f0907c" d="M 314.5,208.5 C 314.911,204.788 316.578,202.788 319.5,202.5C 317.711,201.377 317.378,200.044 318.5,198.5C 320.388,200.794 321.722,203.461 322.5,206.5C 322.167,206.833 321.833,207.167 321.5,207.5C 320.614,206.675 320.281,205.675 320.5,204.5C 319.5,204.5 318.5,204.5 317.5,204.5C 317.5,205.833 317.5,207.167 317.5,208.5C 316.5,208.5 315.5,208.5 314.5,208.5 Z"/></g>
<g><path style="opacity:0.969" fill="#eb7560" d="M 324.5,199.5 C 324.56,198.957 324.893,198.624 325.5,198.5C 326.48,201.086 326.813,203.753 326.5,206.5C 325.737,204.772 325.07,202.438 324.5,199.5 Z"/></g>
<g><path style="opacity:0.939" fill="#ee8472" d="M 358.5,198.5 C 361.041,198.149 362.708,198.482 363.5,199.5C 362.834,202.028 362.168,204.694 361.5,207.5C 360.942,204.23 359.942,201.23 358.5,198.5 Z"/></g>
<g><path style="opacity:0.586" fill="#f9cfc3" d="M 379.5,199.5 C 380.167,201.833 380.833,204.167 381.5,206.5C 382.677,208.784 384.344,209.118 386.5,207.5C 383.852,210.262 381.519,209.929 379.5,206.5C 379.5,204.167 379.5,201.833 379.5,199.5 Z"/></g>
<g><path style="opacity:0.733" fill="#f2a38e" d="M 386.5,205.5 C 386.5,206.167 386.5,206.833 386.5,207.5C 384.344,209.118 382.677,208.784 381.5,206.5C 382.833,206.5 384.167,206.5 385.5,206.5C 385.5,204.167 385.5,201.833 385.5,199.5C 385.897,198.475 386.563,198.308 387.5,199C 386.577,201.041 386.244,203.208 386.5,205.5 Z"/></g>
<g><path style="opacity:0.011" fill="#fcf1ec" d="M 457.5,202.5 C 456.521,201.235 455.521,199.901 454.5,198.5C 453.702,198.957 453.369,199.624 453.5,200.5C 451.903,202.848 450.903,205.514 450.5,208.5C 449.5,208.5 448.5,208.5 447.5,208.5C 447.953,207.542 448.619,206.708 449.5,206C 448.906,205.536 448.239,205.369 447.5,205.5C 448.833,204.167 448.833,202.833 447.5,201.5C 449.028,201.483 449.528,200.816 449,199.5C 446.257,198.083 443.757,198.416 441.5,200.5C 441.414,199.504 441.748,198.671 442.5,198C 444.833,197.333 447.167,197.333 449.5,198C 450.126,198.75 450.626,199.584 451,200.5C 454.809,196.159 456.975,196.826 457.5,202.5 Z"/></g>
<g><path style="opacity:0.969" fill="#ee816d" d="M 457.5,202.5 C 457.66,204.199 457.494,205.866 457,207.5C 456.411,205.137 454.911,204.137 452.5,204.5C 453.263,203.732 454.263,203.232 455.5,203C 454.934,202.005 454.267,201.172 453.5,200.5C 453.369,199.624 453.702,198.957 454.5,198.5C 455.521,199.901 456.521,201.235 457.5,202.5 Z"/></g>
<g><path style="opacity:0.242" fill="#fce8e1" d="M 258.5,183.5 C 258.833,183.5 259.167,183.5 259.5,183.5C 259.34,185.199 259.506,186.866 260,188.5C 262.167,190.667 264.333,192.833 266.5,195C 261.343,196.283 256.01,196.95 250.5,197C 251.766,197.309 252.933,197.809 254,198.5C 256.937,197.183 259.77,197.183 262.5,198.5C 260.5,198.5 258.5,198.5 256.5,198.5C 256.335,201.518 256.502,204.518 257,207.5C 257.61,202.552 258.776,202.552 260.5,207.5C 258.465,209.73 256.132,210.063 253.5,208.5C 251.034,209.634 248.367,209.801 245.5,209C 245.374,206.88 245.041,204.714 244.5,202.5C 243.526,204.743 243.192,207.076 243.5,209.5C 241.901,209.768 240.568,209.434 239.5,208.5C 238.193,206.777 238.193,204.943 239.5,203C 238.552,202.517 237.552,202.351 236.5,202.5C 236.852,205.073 236.352,207.406 235,209.5C 233.501,207.244 231.834,207.244 230,209.5C 228.296,209.026 226.462,208.859 224.5,209C 223.692,208.692 223.025,208.192 222.5,207.5C 223.618,204.188 223.618,200.855 222.5,197.5C 227.844,197.666 233.177,197.499 238.5,197C 229.99,196.829 221.657,196.329 213.5,195.5C 213.833,195.5 214.167,195.5 214.5,195.5C 231.578,195.832 247.911,195.499 263.5,194.5C 261.873,192.37 260.04,190.37 258,188.5C 257.36,186.735 257.527,185.068 258.5,183.5 Z"/></g>
<g><path style="opacity:0.863" fill="#ee8671" d="M 246.5,199.5 C 252.085,198.541 252.752,198.541 248.5,199.5C 248.119,201.942 248.786,202.609 250.5,201.5C 251.583,202.365 251.749,203.365 251,204.5C 249.187,203.391 248.354,204.058 248.5,206.5C 247.737,204.772 247.07,202.438 246.5,199.5 Z"/></g>
<g><path style="opacity:0.55" fill="#f3b3a2" d="M 242.5,199.5 C 242.5,202.5 242.5,205.5 242.5,208.5C 241.5,208.5 240.5,208.5 239.5,208.5C 239.328,207.508 239.662,206.842 240.5,206.5C 241.263,204.772 241.93,202.438 242.5,199.5 Z"/></g>
<g><path style="opacity:0.973" fill="#ee836e" d="M 229.5,198.5 C 231.888,199.219 233.388,200.885 234,203.5C 234.333,201.833 234.667,200.167 235,198.5C 235.667,201.5 235.667,204.5 235,207.5C 233.667,205.5 232.333,203.5 231,201.5C 230.667,203.5 230.333,205.5 230,207.5C 229.502,204.518 229.335,201.518 229.5,198.5 Z"/></g>
<g><path style="opacity:0.871" fill="#f19580" d="M 224.5,198.5 C 225.765,199.514 226.431,201.014 226.5,203C 226.167,204.5 225.833,206 225.5,207.5C 224.516,204.572 224.183,201.572 224.5,198.5 Z"/></g>
<g><path style="opacity:0.977" fill="#ec7362" d="M 242.5,199.5 C 241.93,202.438 241.263,204.772 240.5,206.5C 240.808,204.076 240.474,201.743 239.5,199.5C 238.604,200.506 237.938,200.506 237.5,199.5C 241.33,198.476 242.996,198.476 242.5,199.5 Z"/></g>
<g><path style="opacity:0.882" fill="#ee816e" d="M 310.5,202.5 C 311.942,203.82 312.608,205.486 312.5,207.5C 310.777,205.747 309.277,203.747 308,201.5C 307.667,203.5 307.333,205.5 307,207.5C 306.179,204.446 306.345,201.446 307.5,198.5C 308.984,199.467 309.984,200.8 310.5,202.5 Z"/></g>
<g><path style="opacity:0.008" fill="#fdf9f7" d="M 372.5,206.5 C 372.5,207.167 372.5,207.833 372.5,208.5C 370.347,209.573 368.347,209.573 366.5,208.5C 367.5,208.5 368.5,208.5 369.5,208.5C 369.198,205.941 369.532,203.607 370.5,201.5C 371.458,201.047 372.292,200.381 373,199.5C 373.796,202.039 373.629,204.372 372.5,206.5 Z"/></g>
<g><path style="opacity:0.014" fill="#fdf5f2" d="M 377.5,198.5 C 377.5,198.167 377.5,197.833 377.5,197.5C 379.833,197.5 382.167,197.5 384.5,197.5C 384.328,198.492 384.662,199.158 385.5,199.5C 385.5,201.833 385.5,204.167 385.5,206.5C 384.167,206.5 382.833,206.5 381.5,206.5C 381.813,203.753 381.48,201.086 380.5,198.5C 379.893,198.624 379.56,198.957 379.5,199.5C 379.5,201.833 379.5,204.167 379.5,206.5C 378.71,205.391 378.21,204.058 378,202.5C 376.282,204.202 376.115,206.035 377.5,208C 375.852,209.677 374.185,209.844 372.5,208.5C 373.5,208.5 374.5,208.5 375.5,208.5C 375.335,205.482 375.502,202.482 376,199.5C 378.344,201.972 378.844,201.639 377.5,198.5 Z M 382.5,199.5 C 384.616,201.088 384.949,203.088 383.5,205.5C 382.534,203.604 382.201,201.604 382.5,199.5 Z"/></g>
<g><path style="opacity:0.967" fill="#eb725d" d="M 379.5,199.5 C 379.56,198.957 379.893,198.624 380.5,198.5C 381.48,201.086 381.813,203.753 381.5,206.5C 380.833,204.167 380.167,201.833 379.5,199.5 Z"/></g>
<g><path style="opacity:0.018" fill="#fdf4f1" d="M 394.5,199.5 C 395.462,201.986 396.295,201.986 397,199.5C 397.498,202.482 397.665,205.482 397.5,208.5C 396.835,206.631 396.169,204.631 395.5,202.5C 394.785,204.787 394.451,206.954 394.5,209C 391.738,210.077 390.072,209.244 389.5,206.5C 388.609,207.11 387.609,207.443 386.5,207.5C 386.5,206.833 386.5,206.167 386.5,205.5C 387.233,203.706 388.233,202.039 389.5,200.5C 390.117,200.389 390.617,200.056 391,199.5C 391.92,209.843 393.087,209.843 394.5,199.5 Z M 389.5,206.5 C 388.374,205.142 388.374,203.808 389.5,202.5C 390.782,203.958 390.782,205.292 389.5,206.5 Z"/></g>
<g><path style="opacity:0.851" fill="#f4b09d" d="M 453.5,200.5 C 454.267,201.172 454.934,202.005 455.5,203C 454.263,203.232 453.263,203.732 452.5,204.5C 452.843,206.483 452.176,207.817 450.5,208.5C 450.903,205.514 451.903,202.848 453.5,200.5 Z"/></g>
<g><path style="opacity:0.941" fill="#ef8a76" d="M 301.5,208.5 C 299.62,208.771 298.287,208.104 297.5,206.5C 295.896,205.713 295.229,204.38 295.5,202.5C 296.742,198.608 299.242,197.608 303,199.5C 303.932,202.823 303.432,205.823 301.5,208.5 Z M 298.5,201.5 C 299.586,201.62 300.253,202.287 300.5,203.5C 300.167,204.167 299.833,204.833 299.5,205.5C 298.571,204.311 298.238,202.978 298.5,201.5 Z"/></g>
<g><path style="opacity:0.01" fill="#fcf4f0" d="M 297.5,206.5 C 297.338,204.473 297.505,202.473 298,200.5C 299.049,199.483 300.216,199.316 301.5,200C 303.661,204.448 302.328,206.615 297.5,206.5 Z M 298.5,201.5 C 298.238,202.978 298.571,204.311 299.5,205.5C 299.833,204.833 300.167,204.167 300.5,203.5C 300.253,202.287 299.586,201.62 298.5,201.5 Z"/></g>
<g><path style="opacity:0.937" fill="#ef8874" d="M 356.5,198.5 C 356.649,199.552 356.483,200.552 356,201.5C 354.759,199.579 353.259,199.246 351.5,200.5C 352.914,201.624 354.414,202.624 356,203.5C 356.64,205.265 356.473,206.932 355.5,208.5C 353.516,208.617 351.85,207.95 350.5,206.5C 351.218,205.863 352.218,205.863 353.5,206.5C 355.418,206.139 355.751,205.472 354.5,204.5C 351.266,203.911 349.933,201.911 350.5,198.5C 352.5,198.5 354.5,198.5 356.5,198.5 Z"/></g>
<g><path style="opacity:0.275" fill="#faccbf" d="M 358.5,198.5 C 364.645,197.51 370.978,197.177 377.5,197.5C 377.5,197.833 377.5,198.167 377.5,198.5C 375.167,198.5 372.833,198.5 370.5,198.5C 370.5,199.5 370.5,200.5 370.5,201.5C 369.532,203.607 369.198,205.941 369.5,208.5C 368.5,208.5 367.5,208.5 366.5,208.5C 365.506,207.001 365.506,205.334 366.5,203.5C 365.789,201.97 364.789,200.637 363.5,199.5C 362.708,198.482 361.041,198.149 358.5,198.5 Z"/></g>
<g><path style="opacity:0.039" fill="#fdf4f0" d="M 447.5,201.5 C 446.603,200.402 445.77,200.402 445,201.5C 444.51,202.793 444.343,204.127 444.5,205.5C 445.5,205.5 446.5,205.5 447.5,205.5C 446.791,206.404 445.791,206.737 444.5,206.5C 443.378,204.712 443.211,202.712 444,200.5C 445.756,199.015 446.923,199.348 447.5,201.5 Z"/></g>
<g><path style="opacity:0.937" fill="#ed806b" d="M 262.5,198.5 C 262.822,200.722 262.155,202.556 260.5,204C 262.49,205.84 262.49,207.007 260.5,207.5C 258.776,202.552 257.61,202.552 257,207.5C 256.502,204.518 256.335,201.518 256.5,198.5C 258.5,198.5 260.5,198.5 262.5,198.5 Z"/></g>
<g><path style="opacity:0.192" fill="#fae4dc" d="M 257.5,199.5 C 258.978,199.238 260.311,199.571 261.5,200.5C 260.68,202.111 259.346,202.778 257.5,202.5C 257.5,201.5 257.5,200.5 257.5,199.5 Z"/></g>
<g><path style="opacity:0.094" fill="#fce9e2" d="M 404.5,197.5 C 407.271,199.722 406.938,201.555 403.5,203C 404.416,203.278 405.082,203.778 405.5,204.5C 403.858,206.081 401.858,206.747 399.5,206.5C 399.281,205.325 399.614,204.325 400.5,203.5C 402.366,204.563 402.866,203.896 402,201.5C 400.187,202.609 399.354,201.942 399.5,199.5C 401.144,199.286 402.644,199.62 404,200.5C 404.464,199.906 404.631,199.239 404.5,198.5C 404.5,198.167 404.5,197.833 404.5,197.5 Z"/></g>
<g><path style="opacity:0.784" fill="#f4a491" d="M 438.5,201.5 C 438.519,203.06 438.852,204.56 439.5,206C 439.167,206.5 438.833,207 438.5,207.5C 437.614,206.675 437.281,205.675 437.5,204.5C 436.5,204.5 435.5,204.5 434.5,204.5C 434.5,205.833 434.5,207.167 434.5,208.5C 432.952,208.179 432.285,207.179 432.5,205.5C 432.756,203.063 433.423,200.729 434.5,198.5C 437.419,197.068 438.752,198.068 438.5,201.5 Z"/></g>
<g><path style="opacity:0.022" fill="#fce8e1" d="M 412.5,198.5 C 413.568,197.566 414.901,197.232 416.5,197.5C 420.32,197.762 424.32,197.762 428.5,197.5C 428.501,202.169 426.834,206.169 423.5,209.5C 421.941,208.926 420.441,208.26 419,207.5C 413.499,210.835 409.999,209.335 408.5,203C 408.387,201.301 409.053,200.134 410.5,199.5C 410.833,199.5 411.167,199.5 411.5,199.5C 409.892,202.502 410.225,205.168 412.5,207.5C 412.552,205.43 412.719,203.097 413,200.5C 414.756,199.015 415.923,199.348 416.5,201.5C 417.887,203.489 417.553,205.322 415.5,207C 416.449,207.617 417.282,207.451 418,206.5C 420.037,200.813 418.204,198.146 412.5,198.5 Z M 416.5,201.5 C 415.603,200.402 414.77,200.402 414,201.5C 414.038,206.67 414.871,206.67 416.5,201.5 Z"/></g>
<g><path style="opacity:0.933" fill="#ec7562" d="M 421.5,198.5 C 423.604,198.201 425.604,198.534 427.5,199.5C 426.113,199.807 424.446,199.807 422.5,199.5C 422.354,201.942 423.187,202.609 425,201.5C 425.866,203.896 425.366,204.563 423.5,203.5C 422.719,204.729 422.219,206.062 422,207.5C 421.502,204.518 421.335,201.518 421.5,198.5 Z"/></g>
<g><path style="opacity:0.027" fill="#fdf1ed" d="M 498.5,200.5 C 498.5,202.167 498.5,203.833 498.5,205.5C 500.5,205.167 502.5,204.833 504.5,204.5C 504.737,205.791 504.404,206.791 503.5,207.5C 503.631,206.761 503.464,206.094 503,205.5C 501.301,206.406 499.467,206.739 497.5,206.5C 497.205,204.265 497.539,202.265 498.5,200.5 Z"/></g>
<g><path style="opacity:0.599" fill="#f9cabd" d="M 395.5,196.5 C 395.842,197.338 396.508,197.672 397.5,197.5C 399.5,197.5 401.5,197.5 403.5,197.5C 403.833,197.5 404.167,197.5 404.5,197.5C 404.5,197.833 404.5,198.167 404.5,198.5C 402.5,198.5 400.5,198.5 398.5,198.5C 398.16,201.972 398.493,204.639 399.5,206.5C 401.858,206.747 403.858,206.081 405.5,204.5C 406.434,205.568 406.768,206.901 406.5,208.5C 403.344,209.551 400.344,209.551 397.5,208.5C 397.665,205.482 397.498,202.482 397,199.5C 396.295,201.986 395.462,201.986 394.5,199.5C 394.723,198.704 393.89,198.37 392,198.5C 390.833,198.833 389.667,199.167 388.5,199.5C 388.624,200.107 388.957,200.44 389.5,200.5C 388.233,202.039 387.233,203.706 386.5,205.5C 386.244,203.208 386.577,201.041 387.5,199C 386.563,198.308 385.897,198.475 385.5,199.5C 384.662,199.158 384.328,198.492 384.5,197.5C 385.5,197.5 386.5,197.5 387.5,197.5C 387.833,197.5 388.167,197.5 388.5,197.5C 390.167,197.5 391.833,197.5 393.5,197.5C 394.167,197.167 394.833,196.833 395.5,196.5 Z"/></g>
<g><path style="opacity:0.176" fill="#fdf5f1" d="M 432.5,205.5 C 432.285,207.179 432.952,208.179 434.5,208.5C 433.458,209.791 432.292,209.791 431,208.5C 430.415,207.002 430.915,206.002 432.5,205.5 Z"/></g>
<g><path style="opacity:0.082" fill="#fceee8" d="M 441.5,200.5 C 441.448,202.903 441.781,205.236 442.5,207.5C 440.422,210.071 438.256,210.071 436,207.5C 435.617,208.056 435.117,208.389 434.5,208.5C 434.5,207.167 434.5,205.833 434.5,204.5C 435.5,204.5 436.5,204.5 437.5,204.5C 437.281,205.675 437.614,206.675 438.5,207.5C 438.833,207 439.167,206.5 439.5,206C 438.852,204.56 438.519,203.06 438.5,201.5C 439.222,201.918 439.722,202.584 440,203.5C 440.232,202.263 440.732,201.263 441.5,200.5 Z"/></g>
<g><path style="opacity:0.567" fill="#f4b2a0" d="M 246.5,199.5 C 247.07,202.438 247.737,204.772 248.5,206.5C 250.144,206.714 251.644,206.38 253,205.5C 253.483,206.448 253.649,207.448 253.5,208.5C 251.167,208.5 248.833,208.5 246.5,208.5C 246.5,205.5 246.5,202.5 246.5,199.5 Z"/></g>
<g><path style="opacity:0.133" fill="#fce8e1" d="M 282.5,197.5 C 285.059,197.198 287.393,197.532 289.5,198.5C 291.042,197.699 292.708,197.366 294.5,197.5C 294.216,199.415 294.549,201.081 295.5,202.5C 295.229,204.38 295.896,205.713 297.5,206.5C 298.287,208.104 299.62,208.771 301.5,208.5C 299.511,209.887 297.678,209.553 296,207.5C 291.146,210.872 288.813,209.539 289,203.5C 288.667,205.167 288.333,206.833 288,208.5C 287,208.833 286,209.167 285,209.5C 283.957,207.299 283.123,204.966 282.5,202.5C 281.949,204.413 281.782,206.413 282,208.5C 281.439,209.022 280.772,209.355 280,209.5C 276.828,208.947 273.828,208.947 271,209.5C 270.333,208.833 269.667,208.167 269,207.5C 266.05,210.145 263.217,210.145 260.5,207.5C 262.49,207.007 262.49,205.84 260.5,204C 262.155,202.556 262.822,200.722 262.5,198.5C 265.808,197.575 269.142,197.075 272.5,197C 272.845,199.73 273.011,202.563 273,205.5C 273.986,203.222 274.82,200.889 275.5,198.5C 277.912,198.056 280.246,197.723 282.5,197.5 Z M 262.5,203.5 C 264.337,203.639 264.67,204.306 263.5,205.5C 262.702,205.043 262.369,204.376 262.5,203.5 Z"/></g>
<g><path style="opacity:1" fill="#ed7e69" d="M 280.5,202.5 C 280.66,204.199 280.494,205.866 280,207.5C 279.348,205.277 277.848,204.11 275.5,204C 279.093,203.316 279.427,201.816 276.5,199.5C 276.833,199.167 277.167,198.833 277.5,198.5C 278.521,199.901 279.521,201.235 280.5,202.5 Z"/></g>
<g><path style="opacity:0.776" fill="#ef8c77" d="M 265.5,198.5 C 267.888,199.219 269.388,200.885 270,203.5C 270.202,201.744 270.702,200.078 271.5,198.5C 271.833,198.667 272.167,198.833 272.5,199C 271.718,201.74 271.218,204.574 271,207.5C 269.667,205.5 268.333,203.5 267,201.5C 266.667,203.5 266.333,205.5 266,207.5C 265.502,204.518 265.335,201.518 265.5,198.5 Z"/></g>
<g><path style="opacity:0.912" fill="#ee8975" d="M 291.5,198.5 C 292.765,199.514 293.431,201.014 293.5,203C 293.167,204.5 292.833,206 292.5,207.5C 291.516,204.572 291.183,201.572 291.5,198.5 Z"/></g>
<g><path style="opacity:0.993" fill="#ec7460" d="M 289.5,198.5 C 289.611,200.648 288.944,200.981 287.5,199.5C 286.682,202.107 286.182,204.774 286,207.5C 285.818,204.774 285.318,202.107 284.5,199.5C 283.604,200.506 282.938,200.506 282.5,199.5C 284.743,198.526 287.076,198.192 289.5,198.5 Z"/></g>
<g><path style="opacity:0.629" fill="#f4aa98" d="M 324.5,199.5 C 325.07,202.438 325.737,204.772 326.5,206.5C 327.822,206.67 328.989,206.337 330,205.5C 330.483,206.448 330.649,207.448 330.5,208.5C 330.167,208.5 329.833,208.5 329.5,208.5C 327.833,208.5 326.167,208.5 324.5,208.5C 324.5,205.5 324.5,202.5 324.5,199.5 Z"/></g>
<g><path style="opacity:0.051" fill="#fcece6" d="M 353.5,197.5 C 353.833,197.5 354.167,197.5 354.5,197.5C 355.167,197.5 355.833,197.5 356.5,197.5C 356.5,197.833 356.5,198.167 356.5,198.5C 354.5,198.5 352.5,198.5 350.5,198.5C 349.933,201.911 351.266,203.911 354.5,204.5C 355.751,205.472 355.418,206.139 353.5,206.5C 352.218,205.863 351.218,205.863 350.5,206.5C 351.85,207.95 353.516,208.617 355.5,208.5C 348.792,208.541 342.125,208.541 335.5,208.5C 334.102,207.223 333.436,205.557 333.5,203.5C 333.84,201.488 334.173,199.488 334.5,197.5C 338.167,197.5 341.833,197.5 345.5,197.5C 346.5,197.5 347.5,197.5 348.5,197.5C 350.36,196.929 352.027,196.929 353.5,197.5 Z"/></g>
<g><path style="opacity:0.576" fill="#f5baa9" d="M 338.5,199.5 C 338.5,202.5 338.5,205.5 338.5,208.5C 337.5,208.5 336.5,208.5 335.5,208.5C 335.328,207.508 335.662,206.842 336.5,206.5C 337.263,204.772 337.93,202.438 338.5,199.5 Z"/></g>
<g><path style="opacity:0.973" fill="#eb6f5c" d="M 338.5,199.5 C 337.93,202.438 337.263,204.772 336.5,206.5C 336.187,203.753 336.52,201.086 337.5,198.5C 338.107,198.624 338.44,198.957 338.5,199.5 Z"/></g>
<g><path style="opacity:0.83" fill="#f08c76" d="M 344.5,202.5 C 343.883,202.389 343.383,202.056 343,201.5C 342.667,203.5 342.333,205.5 342,207.5C 341.179,204.446 341.345,201.446 342.5,198.5C 344.111,199.32 344.778,200.654 344.5,202.5 Z"/></g>
<g><path style="opacity:0.837" fill="#ef8b75" d="M 344.5,202.5 C 345.117,202.611 345.617,202.944 346,203.5C 346.333,201.833 346.667,200.167 347,198.5C 347.821,201.554 347.655,204.554 346.5,207.5C 345.05,206.15 344.383,204.484 344.5,202.5 Z"/></g>
<g><path style="opacity:0.675" fill="#f8c0b0" d="M 447.5,205.5 C 448.239,205.369 448.906,205.536 449.5,206C 448.619,206.708 447.953,207.542 447.5,208.5C 445.662,209.678 443.995,209.345 442.5,207.5C 443.492,207.672 444.158,207.338 444.5,206.5C 445.791,206.737 446.791,206.404 447.5,205.5 Z"/></g>
<g><path style="opacity:0.007" fill="#fcf0eb" d="M 465.5,197.5 C 465.5,197.833 465.5,198.167 465.5,198.5C 463.833,198.5 462.167,198.5 460.5,198.5C 460.5,201.833 460.5,205.167 460.5,208.5C 466.167,208.833 468.833,206.167 468.5,200.5C 469.167,200.5 469.5,200.167 469.5,199.5C 472.337,197.598 475.671,196.931 479.5,197.5C 479.177,201.226 479.511,204.893 480.5,208.5C 481.298,206.922 481.798,205.256 482,203.5C 483.378,208.784 484.711,208.784 486,203.5C 486.219,204.938 486.719,206.271 487.5,207.5C 488.484,204.572 488.817,201.572 488.5,198.5C 487.5,198.5 486.5,198.5 485.5,198.5C 485.509,200.308 485.009,201.975 484,203.5C 483.062,201.512 482.228,199.512 481.5,197.5C 490.167,197.5 498.833,197.5 507.5,197.5C 506.992,199.233 506.159,199.566 505,198.5C 504.51,199.793 504.343,201.127 504.5,202.5C 503.209,202.737 502.209,202.404 501.5,201.5C 503.048,201.179 503.715,200.179 503.5,198.5C 501.473,198.338 499.473,198.505 497.5,199C 494.86,201.621 494.86,204.121 497.5,206.5C 497.833,207.167 498.167,207.833 498.5,208.5C 494.141,209.371 489.641,209.371 485,208.5C 484.311,209.357 483.478,210.023 482.5,210.5C 477.681,209.806 472.848,209.14 468,208.5C 461.904,208.693 456.07,208.693 450.5,208.5C 452.176,207.817 452.843,206.483 452.5,204.5C 454.911,204.137 456.411,205.137 457,207.5C 457.494,205.866 457.66,204.199 457.5,202.5C 458.222,202.918 458.722,203.584 459,204.5C 459.687,202.432 459.52,200.432 458.5,198.5C 460.743,197.526 463.076,197.192 465.5,197.5 Z M 463.5,201.5 C 465.225,201.843 465.725,202.843 465,204.5C 463.961,203.756 463.461,202.756 463.5,201.5 Z"/></g>
<g><path style="opacity:0.831" fill="#f19884" d="M 479.5,197.5 C 480.167,197.5 480.833,197.5 481.5,197.5C 482.228,199.512 483.062,201.512 484,203.5C 485.009,201.975 485.509,200.308 485.5,198.5C 486.5,198.5 487.5,198.5 488.5,198.5C 488.817,201.572 488.484,204.572 487.5,207.5C 486.719,206.271 486.219,204.938 486,203.5C 484.711,208.784 483.378,208.784 482,203.5C 481.798,205.256 481.298,206.922 480.5,208.5C 479.511,204.893 479.177,201.226 479.5,197.5 Z"/></g>
<g><path style="opacity:0.895" fill="#ef8473" d="M 491.5,198.5 C 492.765,199.514 493.431,201.014 493.5,203C 493.167,204.5 492.833,206 492.5,207.5C 491.516,204.572 491.183,201.572 491.5,198.5 Z"/></g>
<g><path style="opacity:0.824" fill="#f19985" d="M 470.5,198.5 C 472.924,198.192 475.257,198.526 477.5,199.5C 475.997,200.052 474.331,200.052 472.5,199.5C 472.119,201.942 472.786,202.609 474.5,201.5C 475.985,205.137 475.485,205.804 473,203.5C 472.517,204.448 472.351,205.448 472.5,206.5C 474.144,206.714 475.644,206.38 477,205.5C 477.667,206.167 477.667,206.833 477,207.5C 474.959,208.423 472.792,208.756 470.5,208.5C 470.5,205.167 470.5,201.833 470.5,198.5 Z"/></g>
<g><path style="opacity:0.925" fill="#f19682" d="M 465.5,198.5 C 466.5,199.167 467.5,199.833 468.5,200.5C 468.833,206.167 466.167,208.833 460.5,208.5C 460.5,205.167 460.5,201.833 460.5,198.5C 462.167,198.5 463.833,198.5 465.5,198.5 Z M 463.5,201.5 C 463.461,202.756 463.961,203.756 465,204.5C 465.725,202.843 465.225,201.843 463.5,201.5 Z"/></g>
<g><path style="opacity:0.015" fill="#fdf7f4" d="M 462.5,199.5 C 466.473,200.075 467.473,202.242 465.5,206C 464.552,206.483 463.552,206.649 462.5,206.5C 462.5,204.167 462.5,201.833 462.5,199.5 Z M 463.5,201.5 C 463.461,202.756 463.961,203.756 465,204.5C 465.725,202.843 465.225,201.843 463.5,201.5 Z"/></g>
<g><path style="opacity:0.725" fill="#f8c2b2" d="M 503.5,207.5 C 502.005,209.345 500.338,209.678 498.5,208.5C 498.167,207.833 497.833,207.167 497.5,206.5C 499.467,206.739 501.301,206.406 503,205.5C 503.464,206.094 503.631,206.761 503.5,207.5 Z"/></g>
<g><path style="opacity:0.004" fill="#fdfefd" d="M 314.5,210.5 C 315.833,211.167 315.833,211.167 314.5,210.5 Z"/></g>
<g><path style="opacity:0.055" fill="#fdf2ed" d="M 275.5,213.5 C 272.941,213.198 270.607,213.532 268.5,214.5C 268.5,214.833 268.5,215.167 268.5,215.5C 267.167,215.833 267.167,216.167 268.5,216.5C 268.5,216.833 268.5,217.167 268.5,217.5C 267.167,218.167 266.167,219.167 265.5,220.5C 264.957,220.44 264.624,220.107 264.5,219.5C 266.124,218.131 266.624,216.464 266,214.5C 263.726,213.189 261.56,213.189 259.5,214.5C 259.806,217.385 259.473,220.052 258.5,222.5C 258.322,219.121 258.322,215.955 258.5,213C 264.283,213.261 269.95,213.427 275.5,213.5 Z"/></g>
<g><path style="opacity:0.105" fill="#fce9e3" d="M 293.5,213.5 C 291.167,213.5 288.833,213.5 286.5,213.5C 286.5,216.5 286.5,219.5 286.5,222.5C 285.604,223.506 284.938,223.506 284.5,222.5C 284.5,221.167 284.5,219.833 284.5,218.5C 282.847,218.34 281.514,217.674 280.5,216.5C 281.167,216.5 281.5,216.167 281.5,215.5C 283.9,216.927 284.567,216.427 283.5,214C 280.128,212.878 278.128,214.045 277.5,217.5C 279.636,218.403 281.636,219.569 283.5,221C 282.497,222.546 281.497,222.713 280.5,221.5C 278.804,219.871 277.804,220.204 277.5,222.5C 277.158,223.338 276.492,223.672 275.5,223.5C 275.631,222.624 275.298,221.957 274.5,221.5C 273.264,222.246 271.93,222.579 270.5,222.5C 270.97,220.272 271.97,218.939 273.5,218.5C 271.97,218.061 270.97,216.728 270.5,214.5C 271.93,214.421 273.264,214.754 274.5,215.5C 275.298,215.043 275.631,214.376 275.5,213.5C 281.453,212.818 287.453,212.818 293.5,213.5 Z M 277.5,217.5 C 277.052,219.465 276.052,219.798 274.5,218.5C 275.325,217.614 276.325,217.281 277.5,217.5 Z"/></g>
<g><path style="opacity:0.051" fill="#fcefea" d="M 310.5,213.5 C 308.265,213.205 306.265,213.539 304.5,214.5C 305.036,217.698 304.369,220.365 302.5,222.5C 302.5,221.833 302.5,221.167 302.5,220.5C 301.499,217.685 300.166,215.685 298.5,214.5C 297.323,216.679 296.323,219.013 295.5,221.5C 294.348,220.375 293.348,220.375 292.5,221.5C 291.292,222.234 289.959,222.567 288.5,222.5C 288.97,220.272 289.97,218.939 291.5,218.5C 289.97,218.061 288.97,216.728 288.5,214.5C 290.39,214.297 291.89,214.963 293,216.5C 293.483,215.552 293.649,214.552 293.5,213.5C 294.124,213.917 294.457,214.584 294.5,215.5C 293.577,216.836 293.077,218.17 293,219.5C 293.667,218.167 294.333,218.167 295,219.5C 295.642,217.238 296.475,215.071 297.5,213C 300.064,212.55 301.564,213.716 302,216.5C 302.309,215.234 302.809,214.067 303.5,213C 306.039,212.204 308.372,212.371 310.5,213.5 Z"/></g>
<g><path style="opacity:0.09" fill="#fcede8" d="M 469.5,223.5 C 468.833,223.167 468.167,222.833 467.5,222.5C 467.336,219.813 467.503,217.146 468,214.5C 469.908,217.332 470.741,216.999 470.5,213.5C 468.076,213.192 465.743,213.526 463.5,214.5C 463.846,215.696 464.346,215.696 465,214.5C 465.497,217.146 465.664,219.813 465.5,222.5C 465.167,222.5 464.833,222.5 464.5,222.5C 464.785,220.712 464.452,219.045 463.5,217.5C 462.768,218.881 462.768,220.548 463.5,222.5C 462.833,222.5 462.5,222.833 462.5,223.5C 462.167,223.5 461.833,223.5 461.5,223.5C 461.82,220.102 461.487,216.768 460.5,213.5C 459.828,214.949 459.161,216.282 458.5,217.5C 457.972,216.279 457.305,215.113 456.5,214C 455.184,213.472 454.517,213.972 454.5,215.5C 454.5,218.167 454.5,220.833 454.5,223.5C 453.5,223.5 452.5,223.5 451.5,223.5C 452.303,222.577 452.47,221.577 452,220.5C 449.28,223.359 447.614,223.026 447,219.5C 447.92,219.07 448.753,218.736 449.5,218.5C 448.675,217.614 447.675,217.281 446.5,217.5C 446.5,216.5 446.5,215.5 446.5,214.5C 448.446,214.807 450.113,214.807 451.5,214.5C 449.604,213.534 447.604,213.201 445.5,213.5C 445.5,216.833 445.5,220.167 445.5,223.5C 444.5,223.5 443.5,223.5 442.5,223.5C 442.82,220.102 442.487,216.768 441.5,213.5C 439.578,215.003 438.412,217.003 438,219.5C 437.55,217.481 436.717,215.648 435.5,214C 434.184,213.472 433.517,213.972 433.5,215.5C 433.5,217.833 433.5,220.167 433.5,222.5C 433.167,222.5 432.833,222.5 432.5,222.5C 432.649,221.448 432.483,220.448 432,219.5C 430.294,220.308 429.461,221.641 429.5,223.5C 428.833,223.167 428.167,222.833 427.5,222.5C 427.5,221.5 427.5,220.5 427.5,219.5C 431.071,219.592 432.238,217.926 431,214.5C 429.301,213.594 427.467,213.261 425.5,213.5C 425.5,216.5 425.5,219.5 425.5,222.5C 424.833,222.833 424.167,223.167 423.5,223.5C 423.5,222.833 423.167,222.5 422.5,222.5C 425.2,216.237 423.2,213.237 416.5,213.5C 418.651,211.016 420.985,211.016 423.5,213.5C 426.568,211.641 429.402,211.641 432,213.5C 440.575,212.436 449.242,212.436 458,213.5C 461.227,213.047 464.227,212.047 467,210.5C 469.933,210.933 471.767,212.599 472.5,215.5C 471.68,217.111 470.346,217.778 468.5,217.5C 468.517,219.565 468.85,221.565 469.5,223.5 Z M 452.5,216.5 C 453.773,217.077 453.773,217.743 452.5,218.5C 451.537,218.03 451.537,217.363 452.5,216.5 Z M 464.5,222.5 C 464.167,222.5 463.833,222.5 463.5,222.5C 462.768,220.548 462.768,218.881 463.5,217.5C 464.452,219.045 464.785,220.712 464.5,222.5 Z M 432.5,222.5 C 431.609,223.11 430.609,223.443 429.5,223.5C 429.461,221.641 430.294,220.308 432,219.5C 432.483,220.448 432.649,221.448 432.5,222.5 Z"/></g>
<g><path style="opacity:0.911" fill="#ed826e" d="M 451.5,223.5 C 449.5,223.5 447.5,223.5 445.5,223.5C 445.5,220.167 445.5,216.833 445.5,213.5C 447.604,213.201 449.604,213.534 451.5,214.5C 450.113,214.807 448.446,214.807 446.5,214.5C 446.5,215.5 446.5,216.5 446.5,217.5C 447.675,217.281 448.675,217.614 449.5,218.5C 448.753,218.736 447.92,219.07 447,219.5C 447.614,223.026 449.28,223.359 452,220.5C 452.47,221.577 452.303,222.577 451.5,223.5 Z"/></g>
<g><path style="opacity:0.906" fill="#ef8873" d="M 442.5,223.5 C 440.883,222.411 440.05,220.744 440,218.5C 439.333,219.833 438.667,221.167 438,222.5C 436.961,221.756 436.461,220.756 436.5,219.5C 435.974,217.77 434.974,216.436 433.5,215.5C 433.517,213.972 434.184,213.472 435.5,214C 436.717,215.648 437.55,217.481 438,219.5C 438.412,217.003 439.578,215.003 441.5,213.5C 442.487,216.768 442.82,220.102 442.5,223.5 Z"/></g>
<g><path style="opacity:0.863" fill="#ef917d" d="M 467.5,222.5 C 466.833,223.833 466.167,223.833 465.5,222.5C 465.664,219.813 465.497,217.146 465,214.5C 464.346,215.696 463.846,215.696 463.5,214.5C 465.743,213.526 468.076,213.192 470.5,213.5C 470.741,216.999 469.908,217.332 468,214.5C 467.503,217.146 467.336,219.813 467.5,222.5 Z"/></g>
<g><path style="opacity:0.566" fill="#f5b5a4" d="M 461.5,223.5 C 460.508,223.672 459.842,223.338 459.5,222.5C 460.097,222.265 460.43,221.765 460.5,221C 460.022,219.697 459.355,218.531 458.5,217.5C 459.161,216.282 459.828,214.949 460.5,213.5C 461.487,216.768 461.82,220.102 461.5,223.5 Z"/></g>
<g><path style="opacity:0.851" fill="#ee8270" d="M 427.5,222.5 C 426.833,223.833 426.167,223.833 425.5,222.5C 425.5,219.5 425.5,216.5 425.5,213.5C 427.467,213.261 429.301,213.594 431,214.5C 432.238,217.926 431.071,219.592 427.5,219.5C 427.5,220.5 427.5,221.5 427.5,222.5 Z"/></g>
<g><path style="opacity:0.015" fill="#fce6de" d="M 427.5,214.5 C 430.861,215.203 431.194,216.537 428.5,218.5C 427.571,217.311 427.238,215.978 427.5,214.5 Z"/></g>
<g><path style="opacity:0.827" fill="#ef8671" d="M 259.5,214.5 C 261.56,213.189 263.726,213.189 266,214.5C 266.624,216.464 266.124,218.131 264.5,219.5C 264.624,220.107 264.957,220.44 265.5,220.5C 265.631,221.239 265.464,221.906 265,222.5C 264,221.5 263,220.5 262,219.5C 261.667,220.833 261.333,222.167 261,223.5C 260.819,220.305 260.319,217.305 259.5,214.5 Z"/></g>
<g><path style="opacity:1" fill="#ed806a" d="M 268.5,214.5 C 270.607,213.532 272.941,213.198 275.5,213.5C 275.631,214.376 275.298,215.043 274.5,215.5C 273.264,214.754 271.93,214.421 270.5,214.5C 270.97,216.728 271.97,218.061 273.5,218.5C 271.97,218.939 270.97,220.272 270.5,222.5C 271.93,222.579 273.264,222.246 274.5,221.5C 275.298,221.957 275.631,222.624 275.5,223.5C 273.143,223.663 270.81,223.497 268.5,223C 269.817,220.063 269.817,217.23 268.5,214.5 Z"/></g>
<g><path style="opacity:0.816" fill="#ef8b76" d="M 304.5,214.5 C 306.265,213.539 308.265,213.205 310.5,213.5C 311.301,215.042 311.634,216.708 311.5,218.5C 310.624,218.369 309.957,218.702 309.5,219.5C 310.313,220.814 311.313,221.981 312.5,223C 312,223.167 311.5,223.333 311,223.5C 309.674,222.201 308.34,220.868 307,219.5C 306.517,220.448 306.351,221.448 306.5,222.5C 305.748,220.43 305.082,217.763 304.5,214.5 Z"/></g>
<g><path style="opacity:0.161" fill="#fce7e0" d="M 306.5,214.5 C 307.5,214.5 308.5,214.5 309.5,214.5C 309.5,215.5 309.5,216.5 309.5,217.5C 308.5,217.5 307.5,217.5 306.5,217.5C 306.5,216.5 306.5,215.5 306.5,214.5 Z"/></g>
<g><path style="opacity:0.894" fill="#ef8d79" d="M 416.5,213.5 C 423.2,213.237 425.2,216.237 422.5,222.5C 420.621,223.341 418.621,223.675 416.5,223.5C 413.833,220.167 413.833,216.833 416.5,213.5 Z M 417.5,217.5 C 420.957,217.667 421.29,218.667 418.5,220.5C 417.614,219.675 417.281,218.675 417.5,217.5 Z"/></g>
<g><path style="opacity:0.579" fill="#f3ac98" d="M 433.5,215.5 C 434.974,216.436 435.974,217.77 436.5,219.5C 435.839,220.718 435.172,222.051 434.5,223.5C 433.893,223.376 433.56,223.043 433.5,222.5C 433.5,220.167 433.5,217.833 433.5,215.5 Z"/></g>
<g><path style="opacity:0.867" fill="#ed7d6a" d="M 458.5,217.5 C 459.355,218.531 460.022,219.697 460.5,221C 460.43,221.765 460.097,222.265 459.5,222.5C 458.833,221.167 458.167,219.833 457.5,218.5C 457.144,216.81 456.144,215.81 454.5,215.5C 454.517,213.972 455.184,213.472 456.5,214C 457.305,215.113 457.972,216.279 458.5,217.5 Z"/></g>
<g><path style="opacity:0.943" fill="#ef8a75" d="M 293.5,213.5 C 293.649,214.552 293.483,215.552 293,216.5C 291.89,214.963 290.39,214.297 288.5,214.5C 288.97,216.728 289.97,218.061 291.5,218.5C 289.97,218.939 288.97,220.272 288.5,222.5C 289.959,222.567 291.292,222.234 292.5,221.5C 293.043,221.56 293.376,221.893 293.5,222.5C 291.027,223.797 288.693,223.797 286.5,222.5C 286.5,219.5 286.5,216.5 286.5,213.5C 288.833,213.5 291.167,213.5 293.5,213.5 Z"/></g>
<g><path style="opacity:0.949" fill="#ef8470" d="M 302.5,220.5 C 302.5,221.167 302.5,221.833 302.5,222.5C 302.44,223.043 302.107,223.376 301.5,223.5C 300.824,222.398 300.158,221.398 299.5,220.5C 299.483,218.435 299.15,216.435 298.5,214.5C 300.166,215.685 301.499,217.685 302.5,220.5 Z"/></g>
<g><path style="opacity:0.02" fill="#fcece6" d="M 416.5,213.5 C 413.833,216.833 413.833,220.167 416.5,223.5C 414.559,223.869 412.725,224.536 411,225.5C 408.959,224.577 406.792,224.244 404.5,224.5C 404.5,224.167 404.5,223.833 404.5,223.5C 405.303,222.577 405.47,221.577 405,220.5C 403.89,222.037 402.39,222.703 400.5,222.5C 400.626,220.8 401.293,219.3 402.5,218C 402.389,216.278 401.889,216.112 401,217.5C 400.517,216.552 400.351,215.552 400.5,214.5C 402.109,214.906 403.443,214.906 404.5,214.5C 402.604,213.534 400.604,213.201 398.5,213.5C 398.5,216.5 398.5,219.5 398.5,222.5C 397.662,222.842 397.328,223.508 397.5,224.5C 396.167,224.5 394.833,224.5 393.5,224.5C 393.5,223.833 393.5,223.167 393.5,222.5C 393.328,221.508 393.662,220.842 394.5,220.5C 394.665,218.173 395.331,216.007 396.5,214C 396.167,213.833 395.833,213.667 395.5,213.5C 394.684,215.287 393.684,216.954 392.5,218.5C 391.316,216.954 390.316,215.287 389.5,213.5C 389.167,213.833 388.833,214.167 388.5,214.5C 389.809,217.083 390.809,219.75 391.5,222.5C 391.5,223.167 391.167,223.5 390.5,223.5C 390.167,222.167 389.833,222.167 389.5,223.5C 388.141,222.993 387.141,221.993 386.5,220.5C 385.893,220.624 385.56,220.957 385.5,221.5C 384.292,222.234 382.959,222.567 381.5,222.5C 381.238,221.022 381.571,219.689 382.5,218.5C 383.192,219.025 383.692,219.692 384,220.5C 384.167,219.833 384.333,219.167 384.5,218.5C 382.97,218.061 381.97,216.728 381.5,214.5C 383.446,214.807 385.113,214.807 386.5,214.5C 384.235,213.353 381.902,213.186 379.5,214C 380.792,217.165 380.792,220.332 379.5,223.5C 378.209,223.737 377.209,223.404 376.5,222.5C 379.076,215.74 376.743,212.74 369.5,213.5C 369.5,216.5 369.5,219.5 369.5,222.5C 369.167,222.5 368.833,222.5 368.5,222.5C 368.219,219.183 368.219,216.017 368.5,213C 383.033,212.959 397.366,212.793 411.5,212.5C 410.637,214.895 410.637,217.229 411.5,219.5C 412.821,217.133 414.488,215.133 416.5,213.5 Z M 404.5,218.5 C 405.077,217.227 405.743,217.227 406.5,218.5C 406.03,219.463 405.363,219.463 404.5,218.5 Z M 394.5,220.5 C 395.315,219.571 396.148,218.571 397,217.5C 397.442,219.684 396.942,221.684 395.5,223.5C 394.614,222.675 394.281,221.675 394.5,220.5 Z M 385.5,217.5 C 387.355,217.272 388.188,217.939 388,219.5C 387.333,218.167 386.667,218.167 386,219.5C 385.536,218.906 385.369,218.239 385.5,217.5 Z M 373.5,216.5 C 374.844,218.185 374.677,219.852 373,221.5C 372.36,219.735 372.527,218.068 373.5,216.5 Z"/></g>
<g><path style="opacity:1" fill="#ec7b67" d="M 385.5,221.5 C 386.043,221.56 386.376,221.893 386.5,222.5C 384.257,223.474 381.924,223.808 379.5,223.5C 380.792,220.332 380.792,217.165 379.5,214C 381.902,213.186 384.235,213.353 386.5,214.5C 385.113,214.807 383.446,214.807 381.5,214.5C 381.97,216.728 382.97,218.061 384.5,218.5C 384.333,219.167 384.167,219.833 384,220.5C 383.692,219.692 383.192,219.025 382.5,218.5C 381.571,219.689 381.238,221.022 381.5,222.5C 382.959,222.567 384.292,222.234 385.5,221.5 Z"/></g>
<g><path style="opacity:0.931" fill="#ee8874" d="M 404.5,223.5 C 402.265,223.795 400.265,223.461 398.5,222.5C 398.5,219.5 398.5,216.5 398.5,213.5C 400.604,213.201 402.604,213.534 404.5,214.5C 403.443,214.906 402.109,214.906 400.5,214.5C 400.351,215.552 400.517,216.552 401,217.5C 401.889,216.112 402.389,216.278 402.5,218C 401.293,219.3 400.626,220.8 400.5,222.5C 402.39,222.703 403.89,222.037 405,220.5C 405.47,221.577 405.303,222.577 404.5,223.5 Z"/></g>
<g><path style="opacity:0.847" fill="#f0917c" d="M 394.5,220.5 C 393.662,220.842 393.328,221.508 393.5,222.5C 392.833,222.5 392.167,222.5 391.5,222.5C 390.809,219.75 389.809,217.083 388.5,214.5C 388.833,214.167 389.167,213.833 389.5,213.5C 390.316,215.287 391.316,216.954 392.5,218.5C 393.684,216.954 394.684,215.287 395.5,213.5C 395.833,213.667 396.167,213.833 396.5,214C 395.331,216.007 394.665,218.173 394.5,220.5 Z"/></g>
<g><path style="opacity:0.877" fill="#ee8a76" d="M 407.5,213.5 C 409.094,216.061 410.094,219.061 410.5,222.5C 412.738,219.567 413.738,219.901 413.5,223.5C 411.5,223.5 409.5,223.5 407.5,223.5C 407.5,220.167 407.5,216.833 407.5,213.5 Z"/></g>
<g><path style="opacity:0.015" fill="#fceee8" d="M 417.5,214.5 C 418.822,214.33 419.989,214.663 421,215.5C 421.667,217.5 421.667,219.5 421,221.5C 419.667,222.833 418.333,222.833 417,221.5C 416.297,219.071 416.463,216.738 417.5,214.5 Z M 417.5,217.5 C 417.281,218.675 417.614,219.675 418.5,220.5C 421.29,218.667 420.957,217.667 417.5,217.5 Z"/></g>
<g><path style="opacity:0.9" fill="#f0927e" d="M 281.5,215.5 C 280.833,215.5 280.5,215.833 280.5,216.5C 281.514,217.674 282.847,218.34 284.5,218.5C 284.5,219.833 284.5,221.167 284.5,222.5C 282.167,223.833 279.833,223.833 277.5,222.5C 277.804,220.204 278.804,219.871 280.5,221.5C 281.497,222.713 282.497,222.546 283.5,221C 281.636,219.569 279.636,218.403 277.5,217.5C 278.128,214.045 280.128,212.878 283.5,214C 284.567,216.427 283.9,216.927 281.5,215.5 Z"/></g>
<g><path style="opacity:0.863" fill="#f0937f" d="M 376.5,222.5 C 374.059,223.756 371.726,223.756 369.5,222.5C 369.5,219.5 369.5,216.5 369.5,213.5C 376.743,212.74 379.076,215.74 376.5,222.5 Z M 373.5,216.5 C 372.527,218.068 372.36,219.735 373,221.5C 374.677,219.852 374.844,218.185 373.5,216.5 Z"/></g>
<g><path style="opacity:0.194" fill="#fbe2d8" d="M 371.5,214.5 C 376.668,215.339 377.668,217.839 374.5,222C 373.552,222.483 372.552,222.649 371.5,222.5C 371.5,219.833 371.5,217.167 371.5,214.5 Z M 373.5,216.5 C 372.527,218.068 372.36,219.735 373,221.5C 374.677,219.852 374.844,218.185 373.5,216.5 Z"/></g>
<g><path style="opacity:0.863" fill="#f2a490" d="M 454.5,215.5 C 456.144,215.81 457.144,216.81 457.5,218.5C 457.028,220.531 456.028,222.198 454.5,223.5C 454.5,220.833 454.5,218.167 454.5,215.5 Z"/></g>
<g><path style="opacity:0.371" fill="#f9d2c8" d="M 259.5,214.5 C 260.319,217.305 260.819,220.305 261,223.5C 261.333,222.167 261.667,220.833 262,219.5C 263,220.5 264,221.5 265,222.5C 265.464,221.906 265.631,221.239 265.5,220.5C 267.879,221.567 268.879,220.567 268.5,217.5C 268.5,217.167 268.5,216.833 268.5,216.5C 268.5,216.167 268.5,215.833 268.5,215.5C 268.5,215.167 268.5,214.833 268.5,214.5C 269.817,217.23 269.817,220.063 268.5,223C 270.81,223.497 273.143,223.663 275.5,223.5C 276.492,223.672 277.158,223.338 277.5,222.5C 279.833,223.833 282.167,223.833 284.5,222.5C 284.938,223.506 285.604,223.506 286.5,222.5C 288.693,223.797 291.027,223.797 293.5,222.5C 293.376,221.893 293.043,221.56 292.5,221.5C 293.348,220.375 294.348,220.375 295.5,221.5C 295.369,222.376 295.702,223.043 296.5,223.5C 297.141,222.007 298.141,221.007 299.5,220.5C 300.158,221.398 300.824,222.398 301.5,223.5C 302.107,223.376 302.44,223.043 302.5,222.5C 304.369,220.365 305.036,217.698 304.5,214.5C 305.082,217.763 305.748,220.43 306.5,222.5C 307.404,223.209 307.737,224.209 307.5,225.5C 297.188,236.479 286.521,247.146 275.5,257.5C 269.146,251.812 263.146,245.812 257.5,239.5C 263.758,244.417 269.758,249.751 275.5,255.5C 277.521,254.145 279.188,252.479 280.5,250.5C 289.298,242.202 297.965,233.702 306.5,225C 285.5,224.333 264.5,224.333 243.5,225C 244.056,225.383 244.389,225.883 244.5,226.5C 242.952,226.179 242.285,225.179 242.5,223.5C 248.026,223.821 253.36,223.488 258.5,222.5C 259.473,220.052 259.806,217.385 259.5,214.5 Z M 277.5,217.5 C 276.325,217.281 275.325,217.614 274.5,218.5C 276.052,219.798 277.052,219.465 277.5,217.5 Z M 268.5,217.5 C 268.879,220.567 267.879,221.567 265.5,220.5C 266.167,219.167 267.167,218.167 268.5,217.5 Z"/></g>
<g><path style="opacity:0.616" fill="#f4ab97" d="M 298.5,214.5 C 299.15,216.435 299.483,218.435 299.5,220.5C 298.141,221.007 297.141,222.007 296.5,223.5C 295.702,223.043 295.369,222.376 295.5,221.5C 296.323,219.013 297.323,216.679 298.5,214.5 Z"/></g>
<g><path style="opacity:0.165" fill="#fce7e0" d="M 261.5,214.5 C 262.5,214.5 263.5,214.5 264.5,214.5C 264.5,215.5 264.5,216.5 264.5,217.5C 263.5,217.5 262.5,217.5 261.5,217.5C 261.5,216.5 261.5,215.5 261.5,214.5 Z"/></g>
<g><path style="opacity:0.263" fill="#fae9e3" d="M 336.5,221.5 C 336.487,217.863 337.82,214.863 340.5,212.5C 342.422,214.003 343.588,216.003 344,218.5C 344.495,216.527 344.662,214.527 344.5,212.5C 351.331,212.695 358.164,212.695 365,212.5C 364.351,216.207 364.518,219.873 365.5,223.5C 364.209,223.737 363.209,223.404 362.5,222.5C 365.076,215.74 362.743,212.74 355.5,213.5C 355.5,216.5 355.5,219.5 355.5,222.5C 354.883,222.611 354.383,222.944 354,223.5C 353.502,220.518 353.335,217.518 353.5,214.5C 353.44,213.957 353.107,213.624 352.5,213.5C 351.702,215.078 351.202,216.744 351,218.5C 350.293,216.919 349.46,215.419 348.5,214C 347.251,213.26 346.251,213.427 345.5,214.5C 345.5,217.833 345.5,221.167 345.5,224.5C 338.492,224.334 331.492,224.5 324.5,225C 323.944,225.383 323.611,225.883 323.5,226.5C 321.167,228.167 319.167,230.167 317.5,232.5C 317.167,232.5 316.833,232.5 316.5,232.5C 317.882,229.606 319.882,227.106 322.5,225C 317.247,223.521 312.247,223.688 307.5,225.5C 307.737,224.209 307.404,223.209 306.5,222.5C 306.351,221.448 306.517,220.448 307,219.5C 308.34,220.868 309.674,222.201 311,223.5C 311.5,223.333 312,223.167 312.5,223C 311.313,221.981 310.313,220.814 309.5,219.5C 309.957,218.702 310.624,218.369 311.5,218.5C 311.634,216.708 311.301,215.042 310.5,213.5C 311.496,213.414 312.329,213.748 313,214.5C 314.242,213.128 315.742,212.128 317.5,211.5C 322.482,212.119 327.482,212.786 332.5,213.5C 331.253,216.949 331.586,220.283 333.5,223.5C 334.518,222.807 335.518,222.141 336.5,221.5 Z M 316.5,217.5 C 321.833,218.5 321.833,219.5 316.5,220.5C 316.5,219.5 316.5,218.5 316.5,217.5 Z M 359.5,216.5 C 360.782,217.708 360.782,219.042 359.5,220.5C 358.374,219.192 358.374,217.858 359.5,216.5 Z"/></g>
<g><path style="opacity:0.812" fill="#f19a86" d="M 336.5,221.5 C 337.539,219.099 338.873,216.765 340.5,214.5C 342.019,217.044 343.352,219.711 344.5,222.5C 343.675,223.386 342.675,223.719 341.5,223.5C 341.5,222.5 341.5,221.5 341.5,220.5C 340.5,220.5 339.5,220.5 338.5,220.5C 338.719,221.675 338.386,222.675 337.5,223.5C 336.702,223.043 336.369,222.376 336.5,221.5 Z"/></g>
<g><path style="opacity:0.918" fill="#ef8975" d="M 362.5,222.5 C 360.059,223.756 357.726,223.756 355.5,222.5C 355.5,219.5 355.5,216.5 355.5,213.5C 362.743,212.74 365.076,215.74 362.5,222.5 Z M 359.5,216.5 C 358.374,217.858 358.374,219.192 359.5,220.5C 360.782,219.042 360.782,217.708 359.5,216.5 Z"/></g>
<g><path style="opacity:0.937" fill="#ef8a75" d="M 315.5,213.5 C 317.977,213.051 319.977,213.717 321.5,215.5C 319.737,215.306 317.903,215.306 316,215.5C 315.333,217.5 315.333,219.5 316,221.5C 317.113,222.711 318.28,222.711 319.5,221.5C 320.696,221.846 320.696,222.346 319.5,223C 314.008,223.486 312.175,220.986 314,215.5C 314.717,214.956 315.217,214.289 315.5,213.5 Z"/></g>
<g><path style="opacity:0.765" fill="#f4ae9c" d="M 328.5,214.5 C 329.833,217.167 329.833,219.833 328.5,222.5C 328.5,221.5 328.5,220.5 328.5,219.5C 327.5,219.5 326.5,219.5 325.5,219.5C 325.5,218.833 325.5,218.167 325.5,217.5C 326.5,217.5 327.5,217.5 328.5,217.5C 328.5,216.5 328.5,215.5 328.5,214.5 Z"/></g>
<g><path style="opacity:0.896" fill="#ef8873" d="M 325.5,217.5 C 325.5,218.167 325.5,218.833 325.5,219.5C 325.762,220.978 325.429,222.311 324.5,223.5C 323.167,220.167 323.167,216.833 324.5,213.5C 325.429,214.689 325.762,216.022 325.5,217.5 Z"/></g>
<g><path style="opacity:0.011" fill="#fce7e0" d="M 357.5,214.5 C 362.668,215.339 363.668,217.839 360.5,222C 359.552,222.483 358.552,222.649 357.5,222.5C 357.5,219.833 357.5,217.167 357.5,214.5 Z M 359.5,216.5 C 358.374,217.858 358.374,219.192 359.5,220.5C 360.782,219.042 360.782,217.708 359.5,216.5 Z"/></g>
<g><path style="opacity:0.782" fill="#ee8672" d="M 345.5,214.5 C 346.251,213.427 347.251,213.26 348.5,214C 349.46,215.419 350.293,216.919 351,218.5C 351.202,216.744 351.702,215.078 352.5,213.5C 353.107,213.624 353.44,213.957 353.5,214.5C 352.683,216.969 352.183,219.635 352,222.5C 350.667,220.5 349.333,218.5 348,216.5C 347.667,218.833 347.333,221.167 347,223.5C 346.819,220.305 346.319,217.305 345.5,214.5 Z"/></g>
<g><path style="opacity:0.982" fill="#ea6a58" d="M 328.5,214.5 C 328.56,213.957 328.893,213.624 329.5,213.5C 330.833,216.833 330.833,220.167 329.5,223.5C 328.893,223.376 328.56,223.043 328.5,222.5C 329.833,219.833 329.833,217.167 328.5,214.5 Z"/></g>
<g><path style="opacity:0.281" fill="#f6d1c8" d="M 345.5,214.5 C 346.319,217.305 346.819,220.305 347,223.5C 347.333,221.167 347.667,218.833 348,216.5C 349.333,218.5 350.667,220.5 352,222.5C 352.183,219.635 352.683,216.969 353.5,214.5C 353.335,217.518 353.502,220.518 354,223.5C 354.383,222.944 354.883,222.611 355.5,222.5C 357.726,223.756 360.059,223.756 362.5,222.5C 363.209,223.404 364.209,223.737 365.5,223.5C 366.609,223.443 367.609,223.11 368.5,222.5C 368.833,222.5 369.167,222.5 369.5,222.5C 371.726,223.756 374.059,223.756 376.5,222.5C 377.209,223.404 378.209,223.737 379.5,223.5C 381.924,223.808 384.257,223.474 386.5,222.5C 386.376,221.893 386.043,221.56 385.5,221.5C 385.56,220.957 385.893,220.624 386.5,220.5C 387.141,221.993 388.141,222.993 389.5,223.5C 389.833,223.5 390.167,223.5 390.5,223.5C 391.167,223.5 391.5,223.167 391.5,222.5C 392.167,222.5 392.833,222.5 393.5,222.5C 393.5,223.167 393.5,223.833 393.5,224.5C 377.5,224.5 361.5,224.5 345.5,224.5C 345.5,221.167 345.5,217.833 345.5,214.5 Z"/></g>
<g><path style="opacity:0.139" fill="#f8cac5" d="M 398.5,222.5 C 400.265,223.461 402.265,223.795 404.5,223.5C 404.5,223.833 404.5,224.167 404.5,224.5C 403.761,224.369 403.094,224.536 402.5,225C 416.035,238.368 429.369,251.868 442.5,265.5C 435.555,259.892 428.888,253.892 422.5,247.5C 415.5,239.833 408.167,232.5 400.5,225.5C 399.791,224.596 398.791,224.263 397.5,224.5C 397.328,223.508 397.662,222.842 398.5,222.5 Z"/></g>
<g><path style="opacity:1" fill="#ee4655" d="M 280.5,250.5 C 279.188,252.479 277.521,254.145 275.5,255.5C 269.758,249.751 263.758,244.417 257.5,239.5C 256.833,236.833 255.167,235.167 252.5,234.5C 250.909,231.569 248.909,228.902 246.5,226.5C 255.324,225.343 264.324,225.176 273.5,226C 275.703,230.63 277.536,235.463 279,240.5C 279.61,243.827 280.11,247.161 280.5,250.5 Z"/></g>
<g><path style="opacity:1" fill="#ef5254" d="M 280.5,250.5 C 280.11,247.161 279.61,243.827 279,240.5C 277.536,235.463 275.703,230.63 273.5,226C 264.324,225.176 255.324,225.343 246.5,226.5C 245.833,226.5 245.167,226.5 244.5,226.5C 244.389,225.883 244.056,225.383 243.5,225C 264.5,224.333 285.5,224.333 306.5,225C 297.965,233.702 289.298,242.202 280.5,250.5 Z"/></g>
<g><path style="opacity:1" fill="#d03945" d="M 345.5,224.5 C 361.5,224.5 377.5,224.5 393.5,224.5C 394.833,224.5 396.167,224.5 397.5,224.5C 398.791,224.263 399.791,224.596 400.5,225.5C 393.833,225.5 387.167,225.5 380.5,225.5C 369.833,225.5 359.167,225.5 348.5,225.5C 352.476,239.772 356.476,254.105 360.5,268.5C 360.137,269.183 359.804,269.85 359.5,270.5C 348.175,259.34 337.342,247.673 327,235.5C 325.89,233.963 324.39,233.297 322.5,233.5C 322.448,231.097 322.781,228.764 323.5,226.5C 323.611,225.883 323.944,225.383 324.5,225C 331.492,224.5 338.492,224.334 345.5,224.5 Z"/></g>
<g><path style="opacity:1" fill="#e03a50" d="M 380.5,225.5 C 387.167,225.5 393.833,225.5 400.5,225.5C 408.167,232.5 415.5,239.833 422.5,247.5C 421.07,247.579 419.736,247.246 418.5,246.5C 417.304,246.846 417.304,247.346 418.5,248C 399.954,256.438 381.954,265.605 364.5,275.5C 366.802,276.802 368.802,278.468 370.5,280.5C 372.444,281.189 374.444,281.689 376.5,282C 387.738,287.8 399.072,293.3 410.5,298.5C 410.5,298.833 410.5,299.167 410.5,299.5C 408.833,301.833 406.833,303.833 404.5,305.5C 402.5,305.5 401.5,306.5 401.5,308.5C 400.833,308.833 400.167,309.167 399.5,309.5C 398.778,309.082 398.278,308.416 398,307.5C 396.681,309.25 396.181,311.25 396.5,313.5C 395.5,315.167 394.167,316.5 392.5,317.5C 391.5,317.833 390.833,318.5 390.5,319.5C 388.5,319.5 387.5,320.5 387.5,322.5C 386.167,324.5 384.5,326.167 382.5,327.5C 380.284,327.725 378.617,326.892 377.5,325C 377.833,324.667 378.167,324.333 378.5,324C 376.13,318.692 374.297,313.192 373,307.5C 371.523,303.212 369.523,299.212 367,295.5C 366.936,288.583 365.77,281.916 363.5,275.5C 368.586,258.655 374.253,241.988 380.5,225.5 Z"/></g>
<g><path style="opacity:0.49" fill="#fccbc7" d="M 244.5,226.5 C 245.167,226.5 245.833,226.5 246.5,226.5C 248.909,228.902 250.909,231.569 252.5,234.5C 249.5,232.167 246.833,229.5 244.5,226.5 Z"/></g>
<g><path style="opacity:1" fill="#ca3942" d="M 323.5,226.5 C 322.781,228.764 322.448,231.097 322.5,233.5C 324.39,233.297 325.89,233.963 327,235.5C 337.342,247.673 348.175,259.34 359.5,270.5C 361.727,272.229 362.727,274.562 362.5,277.5C 359.473,279.529 357.14,282.196 355.5,285.5C 355.089,284.738 354.923,283.738 355,282.5C 351.667,285.5 348.333,288.5 345,291.5C 344.272,296.564 341.605,300.23 337,302.5C 334.298,305.699 331.798,309.032 329.5,312.5C 324.833,308.5 320.5,304.167 316.5,299.5C 316.539,298.417 316.873,297.417 317.5,296.5C 332.136,289.506 346.803,282.506 361.5,275.5C 348.283,268.392 334.95,261.558 321.5,255C 315.17,253.139 309.17,250.639 303.5,247.5C 307.607,242.083 312.274,237.083 317.5,232.5C 319.167,230.167 321.167,228.167 323.5,226.5 Z"/></g>
<g><path style="opacity:0.576" fill="#fbc8c4" d="M 252.5,234.5 C 255.167,235.167 256.833,236.833 257.5,239.5C 255.5,238.167 253.833,236.5 252.5,234.5 Z"/></g>
<g><path style="opacity:0.075" fill="#fcf5d9" d="M 442.5,223.5 C 443.5,223.5 444.5,223.5 445.5,223.5C 447.5,223.5 449.5,223.5 451.5,223.5C 452.5,223.5 453.5,223.5 454.5,223.5C 456.028,222.198 457.028,220.531 457.5,218.5C 458.167,219.833 458.833,221.167 459.5,222.5C 459.842,223.338 460.508,223.672 461.5,223.5C 461.833,223.5 462.167,223.5 462.5,223.5C 463.167,223.5 463.5,223.167 463.5,222.5C 463.833,222.5 464.167,222.5 464.5,222.5C 464.833,222.5 465.167,222.5 465.5,222.5C 466.167,223.833 466.833,223.833 467.5,222.5C 468.167,222.833 468.833,223.167 469.5,223.5C 473.884,223.174 478.217,223.508 482.5,224.5C 472.207,234.954 462.207,245.454 452.5,256C 451.167,256.667 449.833,256.667 448.5,256C 437.631,245.298 426.965,234.465 416.5,223.5C 418.621,223.675 420.621,223.341 422.5,222.5C 423.167,222.5 423.5,222.833 423.5,223.5C 424.167,223.167 424.833,222.833 425.5,222.5C 426.167,223.833 426.833,223.833 427.5,222.5C 428.167,222.833 428.833,223.167 429.5,223.5C 430.609,223.443 431.609,223.11 432.5,222.5C 432.833,222.5 433.167,222.5 433.5,222.5C 433.56,223.043 433.893,223.376 434.5,223.5C 435.172,222.051 435.839,220.718 436.5,219.5C 436.461,220.756 436.961,221.756 438,222.5C 438.667,221.167 439.333,219.833 440,218.5C 440.05,220.744 440.883,222.411 442.5,223.5 Z"/></g>
<g><path style="opacity:1" fill="#f5e444" d="M 445.5,250.5 C 446.496,250.414 447.329,250.748 448,251.5C 450.232,243.972 451.732,236.305 452.5,228.5C 455.797,228.671 456.131,228.005 453.5,226.5C 442.674,225.177 432.007,225.177 421.5,226.5C 420.711,226.217 420.044,225.717 419.5,225C 439.833,224.333 460.167,224.333 480.5,225C 470.333,235.167 460.167,245.333 450,255.5C 448.293,253.963 446.793,252.296 445.5,250.5 Z"/></g>
<g><path style="opacity:1" fill="#f7e63d" d="M 445.5,250.5 C 437.167,242.833 429.167,234.833 421.5,226.5C 432.007,225.177 442.674,225.177 453.5,226.5C 456.131,228.005 455.797,228.671 452.5,228.5C 451.732,236.305 450.232,243.972 448,251.5C 447.329,250.748 446.496,250.414 445.5,250.5 Z"/></g>
<g><path style="opacity:0.208" fill="#f1ccc4" d="M 316.5,232.5 C 316.833,232.5 317.167,232.5 317.5,232.5C 312.274,237.083 307.607,242.083 303.5,247.5C 298.687,252.07 293.687,256.403 288.5,260.5C 288.369,259.761 288.536,259.094 289,258.5C 297.949,249.603 307.115,240.937 316.5,232.5 Z"/></g>
<g><path style="opacity:1" fill="#e93a56" d="M 422.5,247.5 C 428.888,253.892 435.555,259.892 442.5,265.5C 442.443,266.609 442.11,267.609 441.5,268.5C 440.5,270.167 439.167,271.5 437.5,272.5C 435.167,272.833 433.833,274.167 433.5,276.5C 433.5,277.167 433.167,277.5 432.5,277.5C 430.5,277.5 429.5,278.5 429.5,280.5C 429.167,281.5 428.5,282.167 427.5,282.5C 425.5,282.5 424.5,283.5 424.5,285.5C 424.5,286.167 424.167,286.5 423.5,286.5C 421.5,286.5 420.5,287.5 420.5,289.5C 420.167,290.5 419.5,291.167 418.5,291.5C 416.856,291.714 415.356,291.38 414,290.5C 414.143,291.865 414.643,293.198 415.5,294.5C 414.5,294.833 413.833,295.5 413.5,296.5C 413.5,297.167 413.167,297.5 412.5,297.5C 411.508,297.328 410.842,297.662 410.5,298.5C 399.072,293.3 387.738,287.8 376.5,282C 374.444,281.689 372.444,281.189 370.5,280.5C 368.802,278.468 366.802,276.802 364.5,275.5C 381.954,265.605 399.954,256.438 418.5,248C 417.304,247.346 417.304,246.846 418.5,246.5C 419.736,247.246 421.07,247.579 422.5,247.5 Z"/></g>
<g><path style="opacity:1" fill="#c43a40" d="M 303.5,247.5 C 309.17,250.639 315.17,253.139 321.5,255C 334.95,261.558 348.283,268.392 361.5,275.5C 346.803,282.506 332.136,289.506 317.5,296.5C 316.873,297.417 316.539,298.417 316.5,299.5C 305.535,289.035 294.702,278.369 284,267.5C 283.53,266.423 283.697,265.423 284.5,264.5C 286.167,263.5 287.5,262.167 288.5,260.5C 293.687,256.403 298.687,252.07 303.5,247.5 Z"/></g>
<g><path style="opacity:0.153" fill="#f8ebe6" d="M 288.5,260.5 C 287.5,262.167 286.167,263.5 284.5,264.5C 284.833,262.167 286.167,260.833 288.5,260.5 Z"/></g>
<g><path style="opacity:0.114" fill="#f7e6e1" d="M 284.5,264.5 C 283.697,265.423 283.53,266.423 284,267.5C 294.702,278.369 305.535,289.035 316.5,299.5C 320.5,304.167 324.833,308.5 329.5,312.5C 336.167,319.5 342.833,326.5 349.5,333.5C 326.918,312.42 304.751,290.753 283,268.5C 282.156,266.537 282.656,265.204 284.5,264.5 Z"/></g>
<g><path style="opacity:0.012" fill="#fcf0ed" d="M 442.5,265.5 C 443.885,266.947 443.552,267.947 441.5,268.5C 442.11,267.609 442.443,266.609 442.5,265.5 Z"/></g>
<g><path style="opacity:0.133" fill="#fbc9c5" d="M 437.5,272.5 C 436.5,274.167 435.167,275.5 433.5,276.5C 433.833,274.167 435.167,272.833 437.5,272.5 Z"/></g>
<g><path style="opacity:1" fill="#d73a4a" d="M 380.5,225.5 C 374.253,241.988 368.586,258.655 363.5,275.5C 365.77,281.916 366.936,288.583 367,295.5C 369.523,299.212 371.523,303.212 373,307.5C 374.297,313.192 376.13,318.692 378.5,324C 378.167,324.333 377.833,324.667 377.5,325C 378.617,326.892 380.284,327.725 382.5,327.5C 381.5,329.167 380.167,330.5 378.5,331.5C 377.5,331.833 376.833,332.5 376.5,333.5C 375.167,335.5 373.5,337.167 371.5,338.5C 369.5,338.5 368.5,339.5 368.5,341.5C 368.5,342.167 368.167,342.5 367.5,342.5C 365.236,343.219 362.903,343.552 360.5,343.5C 357.833,341.5 355.5,339.167 353.5,336.5C 356.664,316.89 359.664,297.223 362.5,277.5C 362.727,274.562 361.727,272.229 359.5,270.5C 359.804,269.85 360.137,269.183 360.5,268.5C 356.476,254.105 352.476,239.772 348.5,225.5C 359.167,225.5 369.833,225.5 380.5,225.5 Z"/></g>
<g><path style="opacity:0.129" fill="#fbccc8" d="M 432.5,277.5 C 431.833,278.833 430.833,279.833 429.5,280.5C 429.5,278.5 430.5,277.5 432.5,277.5 Z"/></g>
<g><path style="opacity:0.125" fill="#fbccc8" d="M 427.5,282.5 C 426.833,283.833 425.833,284.833 424.5,285.5C 424.5,283.5 425.5,282.5 427.5,282.5 Z"/></g>
<g><path style="opacity:1" fill="#d03945" d="M 362.5,277.5 C 359.664,297.223 356.664,316.89 353.5,336.5C 352.167,335.5 350.833,334.5 349.5,333.5C 342.833,326.5 336.167,319.5 329.5,312.5C 331.798,309.032 334.298,305.699 337,302.5C 341.605,300.23 344.272,296.564 345,291.5C 348.333,288.5 351.667,285.5 355,282.5C 354.923,283.738 355.089,284.738 355.5,285.5C 357.14,282.196 359.473,279.529 362.5,277.5 Z"/></g>
<g><path style="opacity:0.137" fill="#facfcb" d="M 423.5,286.5 C 422.833,287.833 421.833,288.833 420.5,289.5C 420.5,287.5 421.5,286.5 423.5,286.5 Z"/></g>
<g><path style="opacity:1" fill="#f5888b" d="M 418.5,291.5 C 417.833,292.833 416.833,293.833 415.5,294.5C 414.643,293.198 414.143,291.865 414,290.5C 415.356,291.38 416.856,291.714 418.5,291.5 Z"/></g>
<g><path style="opacity:0.004" fill="#fcebe8" d="M 415.5,294.5 C 415.5,295.833 414.833,296.5 413.5,296.5C 413.833,295.5 414.5,294.833 415.5,294.5 Z"/></g>
<g><path style="opacity:0.141" fill="#f9d1cc" d="M 412.5,297.5 C 412.167,298.5 411.5,299.167 410.5,299.5C 410.5,299.167 410.5,298.833 410.5,298.5C 410.842,297.662 411.508,297.328 412.5,297.5 Z"/></g>
<g><path style="opacity:0.137" fill="#f8cac5" d="M 404.5,305.5 C 403.833,306.833 402.833,307.833 401.5,308.5C 401.5,306.5 402.5,305.5 404.5,305.5 Z"/></g>
<g><path style="opacity:1" fill="#ee7c7e" d="M 399.5,309.5 C 399.5,309.833 399.5,310.167 399.5,310.5C 398.833,311.833 397.833,312.833 396.5,313.5C 396.181,311.25 396.681,309.25 398,307.5C 398.278,308.416 398.778,309.082 399.5,309.5 Z"/></g>
<g><path style="opacity:0.004" fill="#fbebe7" d="M 401.5,308.5 C 401.5,309.833 400.833,310.5 399.5,310.5C 399.5,310.167 399.5,309.833 399.5,309.5C 400.167,309.167 400.833,308.833 401.5,308.5 Z"/></g>
<g><path style="opacity:0.008" fill="#fbeae7" d="M 392.5,317.5 C 392.5,318.833 391.833,319.5 390.5,319.5C 390.833,318.5 391.5,317.833 392.5,317.5 Z"/></g>
<g><path style="opacity:0.133" fill="#f7cfca" d="M 390.5,319.5 C 389.833,320.833 388.833,321.833 387.5,322.5C 387.5,320.5 388.5,319.5 390.5,319.5 Z"/></g>
<g><path style="opacity:0.008" fill="#faebe7" d="M 378.5,331.5 C 378.5,332.833 377.833,333.5 376.5,333.5C 376.833,332.5 377.5,331.833 378.5,331.5 Z"/></g>
<g><path style="opacity:0.004" fill="#f9e7e3" d="M 349.5,333.5 C 350.833,334.5 352.167,335.5 353.5,336.5C 355.5,339.167 357.833,341.5 360.5,343.5C 360.5,343.833 360.5,344.167 360.5,344.5C 359.833,344.5 359.167,344.5 358.5,344.5C 355.098,341.105 352.098,337.438 349.5,333.5 Z"/></g>
<g><path style="opacity:0.145" fill="#f4c9c3" d="M 371.5,338.5 C 370.833,339.833 369.833,340.833 368.5,341.5C 368.5,339.5 369.5,338.5 371.5,338.5 Z"/></g>
<g><path style="opacity:0.639" fill="#eeaaaa" d="M 367.5,342.5 C 367.167,343.167 366.833,343.833 366.5,344.5C 364.5,344.5 362.5,344.5 360.5,344.5C 360.5,344.167 360.5,343.833 360.5,343.5C 362.903,343.552 365.236,343.219 367.5,342.5 Z"/></g>
</svg>
